<svg>
<circle cx = "407.700000" cy = "341.000000" r = "5" fill = "black" stroke="black" stroke-width="1" fill-opacity = "1"/>
<line x1="407.700000" y1="341.000000" x2="422.800000" y2="297.000000" stroke-width="4" stroke="darkgreen" />
<circle cx = "407.700000" cy = "385.000000" r = "5" fill = "red" stroke="red" stroke-width="1" fill-opacity = "1"/>
<line x1="407.700000" y1="385.000000" x2="422.800000" y2="341.000000" stroke-width="4" stroke="darkgreen" />
<circle cx = "422.800000" cy = "341.000000" r = "5" fill = "black" stroke="black" stroke-width="1" fill-opacity = "1"/>
<line x1="422.800000" y1="341.000000" x2="422.800000" y2="297.000000" stroke-width="4" stroke="darkgreen" />
<circle cx = "422.800000" cy = "297.000000" r = "5" fill = "red" stroke="red" stroke-width="1" fill-opacity = "1"/>
<line x1="422.800000" y1="297.000000" x2="437.900000" y2="253.000000" stroke-width="4" stroke="darkgreen" />
<circle cx = "422.800000" cy = "341.000000" r = "5" fill = "red" stroke="red" stroke-width="1" fill-opacity = "1"/>
<line x1="422.800000" y1="341.000000" x2="437.900000" y2="297.000000" stroke-width="4" stroke="darkgreen" />
<circle cx = "437.900000" cy = "341.000000" r = "5" fill = "red" stroke="red" stroke-width="1" fill-opacity = "1"/>
<line x1="437.900000" y1="341.000000" x2="437.900000" y2="297.000000" stroke-width="4" stroke="darkgreen" />
<circle cx = "437.900000" cy = "297.000000" r = "5" fill = "black" stroke="black" stroke-width="1" fill-opacity = "1"/>
<line x1="437.900000" y1="297.000000" x2="437.900000" y2="253.000000" stroke-width="4" stroke="darkgreen" />
<circle cx = "437.900000" cy = "253.000000" r = "5" fill = "black" stroke="black" stroke-width="1" fill-opacity = "1"/>
<line x1="437.900000" y1="253.000000" x2="453.000000" y2="209.000000" stroke-width="4" stroke="darkgreen" />
<circle cx = "437.900000" cy = "341.000000" r = "5" fill = "red" stroke="red" stroke-width="1" fill-opacity = "1"/>
<line x1="437.900000" y1="341.000000" x2="437.900000" y2="297.000000" stroke-width="4" stroke="darkgreen" />
<circle cx = "437.900000" cy = "297.000000" r = "5" fill = "black" stroke="black" stroke-width="1" fill-opacity = "1"/>
<line x1="437.900000" y1="297.000000" x2="453.000000" y2="253.000000" stroke-width="4" stroke="darkgreen" />
<circle cx = "453.000000" cy = "297.000000" r = "5" fill = "black" stroke="black" stroke-width="1" fill-opacity = "1"/>
<line x1="453.000000" y1="297.000000" x2="453.000000" y2="253.000000" stroke-width="4" stroke="darkgreen" />
<circle cx = "453.000000" cy = "253.000000" r = "5" fill = "black" stroke="black" stroke-width="1" fill-opacity = "1"/>
<line x1="453.000000" y1="253.000000" x2="453.000000" y2="209.000000" stroke-width="4" stroke="darkgreen" />
<circle cx = "453.000000" cy = "209.000000" r = "5" fill = "red" stroke="red" stroke-width="1" fill-opacity = "1"/>
<line x1="453.000000" y1="209.000000" x2="468.100000" y2="165.000000" stroke-width="4" stroke="darkgreen" />
<circle cx = "437.900000" cy = "341.000000" r = "5" fill = "red" stroke="red" stroke-width="1" fill-opacity = "1"/>
<line x1="437.900000" y1="341.000000" x2="437.900000" y2="297.000000" stroke-width="4" stroke="darkgreen" />
<circle cx = "437.900000" cy = "297.000000" r = "5" fill = "black" stroke="black" stroke-width="1" fill-opacity = "1"/>
<line x1="437.900000" y1="297.000000" x2="453.000000" y2="253.000000" stroke-width="4" stroke="darkgreen" />
<circle cx = "437.900000" cy = "341.000000" r = "5" fill = "red" stroke="red" stroke-width="1" fill-opacity = "1"/>
<line x1="437.900000" y1="341.000000" x2="453.000000" y2="297.000000" stroke-width="4" stroke="darkgreen" />
<circle cx = "453.000000" cy = "297.000000" r = "5" fill = "black" stroke="black" stroke-width="1" fill-opacity = "1"/>
<line x1="453.000000" y1="297.000000" x2="453.000000" y2="253.000000" stroke-width="4" stroke="darkgreen" />
<circle cx = "453.000000" cy = "253.000000" r = "5" fill = "red" stroke="red" stroke-width="1" fill-opacity = "1"/>
<line x1="453.000000" y1="253.000000" x2="468.100000" y2="209.000000" stroke-width="4" stroke="darkgreen" />
<circle cx = "453.000000" cy = "341.000000" r = "5" fill = "red" stroke="red" stroke-width="1" fill-opacity = "1"/>
<line x1="453.000000" y1="341.000000" x2="453.000000" y2="297.000000" stroke-width="4" stroke="darkgreen" />
<circle cx = "453.000000" cy = "297.000000" r = "5" fill = "black" stroke="black" stroke-width="1" fill-opacity = "1"/>
<line x1="453.000000" y1="297.000000" x2="468.100000" y2="253.000000" stroke-width="4" stroke="darkgreen" />
<circle cx = "468.100000" cy = "297.000000" r = "5" fill = "black" stroke="black" stroke-width="1" fill-opacity = "1"/>
<line x1="468.100000" y1="297.000000" x2="468.100000" y2="253.000000" stroke-width="4" stroke="darkgreen" />
<circle cx = "468.100000" cy = "253.000000" r = "5" fill = "red" stroke="red" stroke-width="1" fill-opacity = "1"/>
<line x1="468.100000" y1="253.000000" x2="468.100000" y2="209.000000" stroke-width="4" stroke="darkgreen" />
<circle cx = "468.100000" cy = "209.000000" r = "5" fill = "black" stroke="black" stroke-width="1" fill-opacity = "1"/>
<line x1="468.100000" y1="209.000000" x2="468.100000" y2="165.000000" stroke-width="4" stroke="darkgreen" />
<circle cx = "468.100000" cy = "165.000000" r = "5" fill = "black" stroke="black" stroke-width="1" fill-opacity = "1"/>
<line x1="468.100000" y1="165.000000" x2="483.200000" y2="121.000000" stroke-width="4" stroke="darkgreen" />
<circle cx = "422.800000" cy = "341.000000" r = "5" fill = "red" stroke="red" stroke-width="1" fill-opacity = "1"/>
<line x1="422.800000" y1="341.000000" x2="437.900000" y2="297.000000" stroke-width="4" stroke="darkgreen" />
<circle cx = "437.900000" cy = "341.000000" r = "5" fill = "red" stroke="red" stroke-width="1" fill-opacity = "1"/>
<line x1="437.900000" y1="341.000000" x2="437.900000" y2="297.000000" stroke-width="4" stroke="darkgreen" />
<circle cx = "437.900000" cy = "297.000000" r = "5" fill = "black" stroke="black" stroke-width="1" fill-opacity = "1"/>
<line x1="437.900000" y1="297.000000" x2="453.000000" y2="253.000000" stroke-width="4" stroke="darkgreen" />
<circle cx = "453.000000" cy = "297.000000" r = "5" fill = "black" stroke="black" stroke-width="1" fill-opacity = "1"/>
<line x1="453.000000" y1="297.000000" x2="453.000000" y2="253.000000" stroke-width="4" stroke="darkgreen" />
<circle cx = "453.000000" cy = "253.000000" r = "5" fill = "red" stroke="red" stroke-width="1" fill-opacity = "1"/>
<line x1="453.000000" y1="253.000000" x2="468.100000" y2="209.000000" stroke-width="4" stroke="darkgreen" />
<circle cx = "453.000000" cy = "297.000000" r = "5" fill = "black" stroke="black" stroke-width="1" fill-opacity = "1"/>
<line x1="453.000000" y1="297.000000" x2="468.100000" y2="253.000000" stroke-width="4" stroke="darkgreen" />
<circle cx = "453.000000" cy = "341.000000" r = "5" fill = "red" stroke="red" stroke-width="1" fill-opacity = "1"/>
<line x1="453.000000" y1="341.000000" x2="468.100000" y2="297.000000" stroke-width="4" stroke="darkgreen" />
<circle cx = "468.100000" cy = "341.000000" r = "5" fill = "red" stroke="red" stroke-width="1" fill-opacity = "1"/>
<line x1="468.100000" y1="341.000000" x2="468.100000" y2="297.000000" stroke-width="4" stroke="darkgreen" />
<circle cx = "468.100000" cy = "297.000000" r = "5" fill = "black" stroke="black" stroke-width="1" fill-opacity = "1"/>
<line x1="468.100000" y1="297.000000" x2="468.100000" y2="253.000000" stroke-width="4" stroke="darkgreen" />
<circle cx = "468.100000" cy = "253.000000" r = "5" fill = "red" stroke="red" stroke-width="1" fill-opacity = "1"/>
<line x1="468.100000" y1="253.000000" x2="468.100000" y2="209.000000" stroke-width="4" stroke="darkgreen" />
<circle cx = "468.100000" cy = "209.000000" r = "5" fill = "black" stroke="black" stroke-width="1" fill-opacity = "1"/>
<line x1="468.100000" y1="209.000000" x2="483.200000" y2="165.000000" stroke-width="4" stroke="darkgreen" />
<circle cx = "437.900000" cy = "341.000000" r = "5" fill = "red" stroke="red" stroke-width="1" fill-opacity = "1"/>
<line x1="437.900000" y1="341.000000" x2="453.000000" y2="297.000000" stroke-width="4" stroke="darkgreen" />
<circle cx = "453.000000" cy = "341.000000" r = "5" fill = "red" stroke="red" stroke-width="1" fill-opacity = "1"/>
<line x1="453.000000" y1="341.000000" x2="453.000000" y2="297.000000" stroke-width="4" stroke="darkgreen" />
<circle cx = "453.000000" cy = "297.000000" r = "5" fill = "black" stroke="black" stroke-width="1" fill-opacity = "1"/>
<line x1="453.000000" y1="297.000000" x2="468.100000" y2="253.000000" stroke-width="4" stroke="darkgreen" />
<circle cx = "453.000000" cy = "341.000000" r = "5" fill = "red" stroke="red" stroke-width="1" fill-opacity = "1"/>
<line x1="453.000000" y1="341.000000" x2="468.100000" y2="297.000000" stroke-width="4" stroke="darkgreen" />
<circle cx = "468.100000" cy = "297.000000" r = "5" fill = "black" stroke="black" stroke-width="1" fill-opacity = "1"/>
<line x1="468.100000" y1="297.000000" x2="468.100000" y2="253.000000" stroke-width="4" stroke="darkgreen" />
<circle cx = "468.100000" cy = "253.000000" r = "5" fill = "black" stroke="black" stroke-width="1" fill-opacity = "1"/>
<line x1="468.100000" y1="253.000000" x2="483.200000" y2="209.000000" stroke-width="4" stroke="darkgreen" />
<circle cx = "437.900000" cy = "385.000000" r = "5" fill = "red" stroke="red" stroke-width="1" fill-opacity = "1"/>
<line x1="437.900000" y1="385.000000" x2="453.000000" y2="341.000000" stroke-width="4" stroke="darkgreen" />
<circle cx = "453.000000" cy = "341.000000" r = "5" fill = "black" stroke="black" stroke-width="1" fill-opacity = "1"/>
<line x1="453.000000" y1="341.000000" x2="468.100000" y2="297.000000" stroke-width="4" stroke="darkgreen" />
<circle cx = "468.100000" cy = "341.000000" r = "5" fill = "black" stroke="black" stroke-width="1" fill-opacity = "1"/>
<line x1="468.100000" y1="341.000000" x2="468.100000" y2="297.000000" stroke-width="4" stroke="darkgreen" />
<circle cx = "468.100000" cy = "297.000000" r = "5" fill = "red" stroke="red" stroke-width="1" fill-opacity = "1"/>
<line x1="468.100000" y1="297.000000" x2="483.200000" y2="253.000000" stroke-width="4" stroke="darkgreen" />
<circle cx = "468.100000" cy = "341.000000" r = "5" fill = "red" stroke="red" stroke-width="1" fill-opacity = "1"/>
<line x1="468.100000" y1="341.000000" x2="483.200000" y2="297.000000" stroke-width="4" stroke="darkgreen" />
<circle cx = "483.200000" cy = "297.000000" r = "5" fill = "black" stroke="black" stroke-width="1" fill-opacity = "1"/>
<line x1="483.200000" y1="297.000000" x2="483.200000" y2="253.000000" stroke-width="4" stroke="darkgreen" />
<circle cx = "483.200000" cy = "253.000000" r = "5" fill = "black" stroke="black" stroke-width="1" fill-opacity = "1"/>
<line x1="483.200000" y1="253.000000" x2="483.200000" y2="209.000000" stroke-width="4" stroke="darkgreen" />
<circle cx = "483.200000" cy = "209.000000" r = "5" fill = "red" stroke="red" stroke-width="1" fill-opacity = "1"/>
<line x1="483.200000" y1="209.000000" x2="483.200000" y2="165.000000" stroke-width="4" stroke="darkgreen" />
<circle cx = "483.200000" cy = "165.000000" r = "5" fill = "black" stroke="black" stroke-width="1" fill-opacity = "1"/>
<line x1="483.200000" y1="165.000000" x2="483.200000" y2="121.000000" stroke-width="4" stroke="darkgreen" />
<circle cx = "483.200000" cy = "121.000000" r = "5" fill = "red" stroke="red" stroke-width="1" fill-opacity = "1"/>
<line x1="483.200000" y1="121.000000" x2="498.300000" y2="77.000000" stroke-width="4" stroke="darkgreen" />
<circle cx = "437.900000" cy = "297.000000" r = "5" fill = "black" stroke="black" stroke-width="1" fill-opacity = "1"/>
<line x1="437.900000" y1="297.000000" x2="453.000000" y2="253.000000" stroke-width="4" stroke="darkgreen" />
<circle cx = "437.900000" cy = "341.000000" r = "5" fill = "black" stroke="black" stroke-width="1" fill-opacity = "1"/>
<line x1="437.900000" y1="341.000000" x2="453.000000" y2="297.000000" stroke-width="4" stroke="darkgreen" />
<circle cx = "437.900000" cy = "385.000000" r = "5" fill = "red" stroke="red" stroke-width="1" fill-opacity = "1"/>
<line x1="437.900000" y1="385.000000" x2="453.000000" y2="341.000000" stroke-width="4" stroke="darkgreen" />
<circle cx = "453.000000" cy = "341.000000" r = "5" fill = "black" stroke="black" stroke-width="1" fill-opacity = "1"/>
<line x1="453.000000" y1="341.000000" x2="453.000000" y2="297.000000" stroke-width="4" stroke="darkgreen" />
<circle cx = "453.000000" cy = "297.000000" r = "5" fill = "red" stroke="red" stroke-width="1" fill-opacity = "1"/>
<line x1="453.000000" y1="297.000000" x2="453.000000" y2="253.000000" stroke-width="4" stroke="darkgreen" />
<circle cx = "453.000000" cy = "253.000000" r = "5" fill = "black" stroke="black" stroke-width="1" fill-opacity = "1"/>
<line x1="453.000000" y1="253.000000" x2="468.100000" y2="209.000000" stroke-width="4" stroke="darkgreen" />
<circle cx = "453.000000" cy = "341.000000" r = "5" fill = "red" stroke="red" stroke-width="1" fill-opacity = "1"/>
<line x1="453.000000" y1="341.000000" x2="453.000000" y2="297.000000" stroke-width="4" stroke="darkgreen" />
<circle cx = "453.000000" cy = "297.000000" r = "5" fill = "black" stroke="black" stroke-width="1" fill-opacity = "1"/>
<line x1="453.000000" y1="297.000000" x2="468.100000" y2="253.000000" stroke-width="4" stroke="darkgreen" />
<circle cx = "468.100000" cy = "341.000000" r = "5" fill = "red" stroke="red" stroke-width="1" fill-opacity = "1"/>
<line x1="468.100000" y1="341.000000" x2="468.100000" y2="297.000000" stroke-width="4" stroke="darkgreen" />
<circle cx = "468.100000" cy = "297.000000" r = "5" fill = "black" stroke="black" stroke-width="1" fill-opacity = "1"/>
<line x1="468.100000" y1="297.000000" x2="468.100000" y2="253.000000" stroke-width="4" stroke="darkgreen" />
<circle cx = "468.100000" cy = "253.000000" r = "5" fill = "black" stroke="black" stroke-width="1" fill-opacity = "1"/>
<line x1="468.100000" y1="253.000000" x2="468.100000" y2="209.000000" stroke-width="4" stroke="darkgreen" />
<circle cx = "468.100000" cy = "209.000000" r = "5" fill = "red" stroke="red" stroke-width="1" fill-opacity = "1"/>
<line x1="468.100000" y1="209.000000" x2="483.200000" y2="165.000000" stroke-width="4" stroke="darkgreen" />
<circle cx = "437.900000" cy = "341.000000" r = "5" fill = "red" stroke="red" stroke-width="1" fill-opacity = "1"/>
<line x1="437.900000" y1="341.000000" x2="453.000000" y2="297.000000" stroke-width="4" stroke="darkgreen" />
<circle cx = "453.000000" cy = "297.000000" r = "5" fill = "black" stroke="black" stroke-width="1" fill-opacity = "1"/>
<line x1="453.000000" y1="297.000000" x2="468.100000" y2="253.000000" stroke-width="4" stroke="darkgreen" />
<circle cx = "437.900000" cy = "385.000000" r = "5" fill = "red" stroke="red" stroke-width="1" fill-opacity = "1"/>
<line x1="437.900000" y1="385.000000" x2="453.000000" y2="341.000000" stroke-width="4" stroke="darkgreen" />
<circle cx = "453.000000" cy = "341.000000" r = "5" fill = "black" stroke="black" stroke-width="1" fill-opacity = "1"/>
<line x1="453.000000" y1="341.000000" x2="468.100000" y2="297.000000" stroke-width="4" stroke="darkgreen" />
<circle cx = "453.000000" cy = "385.000000" r = "5" fill = "red" stroke="red" stroke-width="1" fill-opacity = "1"/>
<line x1="453.000000" y1="385.000000" x2="468.100000" y2="341.000000" stroke-width="4" stroke="darkgreen" />
<circle cx = "468.100000" cy = "385.000000" r = "5" fill = "red" stroke="red" stroke-width="1" fill-opacity = "1"/>
<line x1="468.100000" y1="385.000000" x2="468.100000" y2="341.000000" stroke-width="4" stroke="darkgreen" />
<circle cx = "468.100000" cy = "341.000000" r = "5" fill = "black" stroke="black" stroke-width="1" fill-opacity = "1"/>
<line x1="468.100000" y1="341.000000" x2="468.100000" y2="297.000000" stroke-width="4" stroke="darkgreen" />
<circle cx = "468.100000" cy = "297.000000" r = "5" fill = "red" stroke="red" stroke-width="1" fill-opacity = "1"/>
<line x1="468.100000" y1="297.000000" x2="468.100000" y2="253.000000" stroke-width="4" stroke="darkgreen" />
<circle cx = "468.100000" cy = "253.000000" r = "5" fill = "black" stroke="black" stroke-width="1" fill-opacity = "1"/>
<line x1="468.100000" y1="253.000000" x2="483.200000" y2="209.000000" stroke-width="4" stroke="darkgreen" />
<circle cx = "453.000000" cy = "341.000000" r = "5" fill = "black" stroke="black" stroke-width="1" fill-opacity = "1"/>
<line x1="453.000000" y1="341.000000" x2="468.100000" y2="297.000000" stroke-width="4" stroke="darkgreen" />
<circle cx = "468.100000" cy = "341.000000" r = "5" fill = "black" stroke="black" stroke-width="1" fill-opacity = "1"/>
<line x1="468.100000" y1="341.000000" x2="468.100000" y2="297.000000" stroke-width="4" stroke="darkgreen" />
<circle cx = "468.100000" cy = "297.000000" r = "5" fill = "red" stroke="red" stroke-width="1" fill-opacity = "1"/>
<line x1="468.100000" y1="297.000000" x2="483.200000" y2="253.000000" stroke-width="4" stroke="darkgreen" />
<circle cx = "468.100000" cy = "385.000000" r = "5" fill = "red" stroke="red" stroke-width="1" fill-opacity = "1"/>
<line x1="468.100000" y1="385.000000" x2="468.100000" y2="341.000000" stroke-width="4" stroke="darkgreen" />
<circle cx = "468.100000" cy = "341.000000" r = "5" fill = "black" stroke="black" stroke-width="1" fill-opacity = "1"/>
<line x1="468.100000" y1="341.000000" x2="483.200000" y2="297.000000" stroke-width="4" stroke="darkgreen" />
<circle cx = "483.200000" cy = "341.000000" r = "5" fill = "black" stroke="black" stroke-width="1" fill-opacity = "1"/>
<line x1="483.200000" y1="341.000000" x2="483.200000" y2="297.000000" stroke-width="4" stroke="darkgreen" />
<circle cx = "483.200000" cy = "297.000000" r = "5" fill = "red" stroke="red" stroke-width="1" fill-opacity = "1"/>
<line x1="483.200000" y1="297.000000" x2="483.200000" y2="253.000000" stroke-width="4" stroke="darkgreen" />
<circle cx = "483.200000" cy = "253.000000" r = "5" fill = "black" stroke="black" stroke-width="1" fill-opacity = "1"/>
<line x1="483.200000" y1="253.000000" x2="483.200000" y2="209.000000" stroke-width="4" stroke="darkgreen" />
<circle cx = "483.200000" cy = "209.000000" r = "5" fill = "red" stroke="red" stroke-width="1" fill-opacity = "1"/>
<line x1="483.200000" y1="209.000000" x2="483.200000" y2="165.000000" stroke-width="4" stroke="darkgreen" />
<circle cx = "483.200000" cy = "165.000000" r = "5" fill = "black" stroke="black" stroke-width="1" fill-opacity = "1"/>
<line x1="483.200000" y1="165.000000" x2="498.300000" y2="121.000000" stroke-width="4" stroke="darkgreen" />
<circle cx = "437.900000" cy = "341.000000" r = "5" fill = "red" stroke="red" stroke-width="1" fill-opacity = "1"/>
<line x1="437.900000" y1="341.000000" x2="453.000000" y2="297.000000" stroke-width="4" stroke="darkgreen" />
<circle cx = "453.000000" cy = "297.000000" r = "5" fill = "black" stroke="black" stroke-width="1" fill-opacity = "1"/>
<line x1="453.000000" y1="297.000000" x2="468.100000" y2="253.000000" stroke-width="4" stroke="darkgreen" />
<circle cx = "437.900000" cy = "385.000000" r = "5" fill = "red" stroke="red" stroke-width="1" fill-opacity = "1"/>
<line x1="437.900000" y1="385.000000" x2="453.000000" y2="341.000000" stroke-width="4" stroke="darkgreen" />
<circle cx = "453.000000" cy = "341.000000" r = "5" fill = "black" stroke="black" stroke-width="1" fill-opacity = "1"/>
<line x1="453.000000" y1="341.000000" x2="468.100000" y2="297.000000" stroke-width="4" stroke="darkgreen" />
<circle cx = "453.000000" cy = "385.000000" r = "5" fill = "red" stroke="red" stroke-width="1" fill-opacity = "1"/>
<line x1="453.000000" y1="385.000000" x2="468.100000" y2="341.000000" stroke-width="4" stroke="darkgreen" />
<circle cx = "468.100000" cy = "385.000000" r = "5" fill = "red" stroke="red" stroke-width="1" fill-opacity = "1"/>
<line x1="468.100000" y1="385.000000" x2="468.100000" y2="341.000000" stroke-width="4" stroke="darkgreen" />
<circle cx = "468.100000" cy = "341.000000" r = "5" fill = "black" stroke="black" stroke-width="1" fill-opacity = "1"/>
<line x1="468.100000" y1="341.000000" x2="468.100000" y2="297.000000" stroke-width="4" stroke="darkgreen" />
<circle cx = "468.100000" cy = "297.000000" r = "5" fill = "red" stroke="red" stroke-width="1" fill-opacity = "1"/>
<line x1="468.100000" y1="297.000000" x2="468.100000" y2="253.000000" stroke-width="4" stroke="darkgreen" />
<circle cx = "468.100000" cy = "253.000000" r = "5" fill = "black" stroke="black" stroke-width="1" fill-opacity = "1"/>
<line x1="468.100000" y1="253.000000" x2="483.200000" y2="209.000000" stroke-width="4" stroke="darkgreen" />
<circle cx = "453.000000" cy = "341.000000" r = "5" fill = "red" stroke="red" stroke-width="1" fill-opacity = "1"/>
<line x1="453.000000" y1="341.000000" x2="468.100000" y2="297.000000" stroke-width="4" stroke="darkgreen" />
<circle cx = "468.100000" cy = "297.000000" r = "5" fill = "black" stroke="black" stroke-width="1" fill-opacity = "1"/>
<line x1="468.100000" y1="297.000000" x2="483.200000" y2="253.000000" stroke-width="4" stroke="darkgreen" />
<circle cx = "468.100000" cy = "341.000000" r = "5" fill = "red" stroke="red" stroke-width="1" fill-opacity = "1"/>
<line x1="468.100000" y1="341.000000" x2="483.200000" y2="297.000000" stroke-width="4" stroke="darkgreen" />
<circle cx = "483.200000" cy = "297.000000" r = "5" fill = "black" stroke="black" stroke-width="1" fill-opacity = "1"/>
<line x1="483.200000" y1="297.000000" x2="483.200000" y2="253.000000" stroke-width="4" stroke="darkgreen" />
<circle cx = "483.200000" cy = "253.000000" r = "5" fill = "black" stroke="black" stroke-width="1" fill-opacity = "1"/>
<line x1="483.200000" y1="253.000000" x2="483.200000" y2="209.000000" stroke-width="4" stroke="darkgreen" />
<circle cx = "483.200000" cy = "209.000000" r = "5" fill = "red" stroke="red" stroke-width="1" fill-opacity = "1"/>
<line x1="483.200000" y1="209.000000" x2="498.300000" y2="165.000000" stroke-width="4" stroke="darkgreen" />
<circle cx = "483.200000" cy = "253.000000" r = "5" fill = "black" stroke="black" stroke-width="1" fill-opacity = "1"/>
<line x1="483.200000" y1="253.000000" x2="498.300000" y2="209.000000" stroke-width="4" stroke="darkgreen" />
<circle cx = "483.200000" cy = "297.000000" r = "5" fill = "black" stroke="black" stroke-width="1" fill-opacity = "1"/>
<line x1="483.200000" y1="297.000000" x2="498.300000" y2="253.000000" stroke-width="4" stroke="darkgreen" />
<circle cx = "483.200000" cy = "341.000000" r = "5" fill = "red" stroke="red" stroke-width="1" fill-opacity = "1"/>
<line x1="483.200000" y1="341.000000" x2="498.300000" y2="297.000000" stroke-width="4" stroke="darkgreen" />
<circle cx = "498.300000" cy = "297.000000" r = "5" fill = "black" stroke="black" stroke-width="1" fill-opacity = "1"/>
<line x1="498.300000" y1="297.000000" x2="498.300000" y2="253.000000" stroke-width="4" stroke="darkgreen" />
<circle cx = "498.300000" cy = "253.000000" r = "5" fill = "red" stroke="red" stroke-width="1" fill-opacity = "1"/>
<line x1="498.300000" y1="253.000000" x2="498.300000" y2="209.000000" stroke-width="4" stroke="darkgreen" />
<circle cx = "498.300000" cy = "209.000000" r = "5" fill = "black" stroke="black" stroke-width="1" fill-opacity = "1"/>
<line x1="498.300000" y1="209.000000" x2="498.300000" y2="165.000000" stroke-width="4" stroke="darkgreen" />
<circle cx = "498.300000" cy = "165.000000" r = "5" fill = "black" stroke="black" stroke-width="1" fill-opacity = "1"/>
<line x1="498.300000" y1="165.000000" x2="498.300000" y2="121.000000" stroke-width="4" stroke="darkgreen" />
<circle cx = "498.300000" cy = "121.000000" r = "5" fill = "red" stroke="red" stroke-width="1" fill-opacity = "1"/>
<line x1="498.300000" y1="121.000000" x2="498.300000" y2="77.000000" stroke-width="4" stroke="darkgreen" />
<circle cx = "498.300000" cy = "77.000000" r = "5" fill = "black" stroke="black" stroke-width="1" fill-opacity = "1"/>
<line x1="498.300000" y1="77.000000" x2="513.400000" y2="33.000000" stroke-width="4" stroke="darkgreen" />
<circle cx = "528.500000" cy = "341.000000" r = "5" fill = "red" stroke="red" stroke-width="1" fill-opacity = "1"/>
<line x1="528.500000" y1="341.000000" x2="528.500000" y2="297.000000" stroke-width="4" stroke="darkgreen" />
<circle cx = "528.500000" cy = "297.000000" r = "5" fill = "black" stroke="black" stroke-width="1" fill-opacity = "1"/>
<line x1="528.500000" y1="297.000000" x2="528.500000" y2="253.000000" stroke-width="4" stroke="darkgreen" />
<circle cx = "543.600000" cy = "341.000000" r = "5" fill = "red" stroke="red" stroke-width="1" fill-opacity = "1"/>
<line x1="543.600000" y1="341.000000" x2="543.600000" y2="297.000000" stroke-width="4" stroke="darkgreen" />
<circle cx = "543.600000" cy = "297.000000" r = "5" fill = "black" stroke="black" stroke-width="1" fill-opacity = "1"/>
<line x1="543.600000" y1="297.000000" x2="528.500000" y2="253.000000" stroke-width="4" stroke="darkgreen" />
<circle cx = "528.500000" cy = "253.000000" r = "5" fill = "red" stroke="red" stroke-width="1" fill-opacity = "1"/>
<line x1="528.500000" y1="253.000000" x2="528.500000" y2="209.000000" stroke-width="4" stroke="darkgreen" />
<circle cx = "543.600000" cy = "341.000000" r = "5" fill = "red" stroke="red" stroke-width="1" fill-opacity = "1"/>
<line x1="543.600000" y1="341.000000" x2="543.600000" y2="297.000000" stroke-width="4" stroke="darkgreen" />
<circle cx = "558.700000" cy = "341.000000" r = "5" fill = "red" stroke="red" stroke-width="1" fill-opacity = "1"/>
<line x1="558.700000" y1="341.000000" x2="543.600000" y2="297.000000" stroke-width="4" stroke="darkgreen" />
<circle cx = "543.600000" cy = "297.000000" r = "5" fill = "black" stroke="black" stroke-width="1" fill-opacity = "1"/>
<line x1="543.600000" y1="297.000000" x2="543.600000" y2="253.000000" stroke-width="4" stroke="darkgreen" />
<circle cx = "558.700000" cy = "297.000000" r = "5" fill = "black" stroke="black" stroke-width="1" fill-opacity = "1"/>
<line x1="558.700000" y1="297.000000" x2="543.600000" y2="253.000000" stroke-width="4" stroke="darkgreen" />
<circle cx = "543.600000" cy = "253.000000" r = "5" fill = "red" stroke="red" stroke-width="1" fill-opacity = "1"/>
<line x1="543.600000" y1="253.000000" x2="528.500000" y2="209.000000" stroke-width="4" stroke="darkgreen" />
<circle cx = "528.500000" cy = "209.000000" r = "5" fill = "black" stroke="black" stroke-width="1" fill-opacity = "1"/>
<line x1="528.500000" y1="209.000000" x2="528.500000" y2="165.000000" stroke-width="4" stroke="darkgreen" />
<circle cx = "543.600000" cy = "341.000000" r = "5" fill = "red" stroke="red" stroke-width="1" fill-opacity = "1"/>
<line x1="543.600000" y1="341.000000" x2="543.600000" y2="297.000000" stroke-width="4" stroke="darkgreen" />
<circle cx = "558.700000" cy = "341.000000" r = "5" fill = "red" stroke="red" stroke-width="1" fill-opacity = "1"/>
<line x1="558.700000" y1="341.000000" x2="543.600000" y2="297.000000" stroke-width="4" stroke="darkgreen" />
<circle cx = "543.600000" cy = "297.000000" r = "5" fill = "black" stroke="black" stroke-width="1" fill-opacity = "1"/>
<line x1="543.600000" y1="297.000000" x2="543.600000" y2="253.000000" stroke-width="4" stroke="darkgreen" />
<circle cx = "558.700000" cy = "341.000000" r = "5" fill = "red" stroke="red" stroke-width="1" fill-opacity = "1"/>
<line x1="558.700000" y1="341.000000" x2="558.700000" y2="297.000000" stroke-width="4" stroke="darkgreen" />
<circle cx = "573.800000" cy = "341.000000" r = "5" fill = "red" stroke="red" stroke-width="1" fill-opacity = "1"/>
<line x1="573.800000" y1="341.000000" x2="558.700000" y2="297.000000" stroke-width="4" stroke="darkgreen" />
<circle cx = "558.700000" cy = "297.000000" r = "5" fill = "black" stroke="black" stroke-width="1" fill-opacity = "1"/>
<line x1="558.700000" y1="297.000000" x2="543.600000" y2="253.000000" stroke-width="4" stroke="darkgreen" />
<circle cx = "543.600000" cy = "253.000000" r = "5" fill = "red" stroke="red" stroke-width="1" fill-opacity = "1"/>
<line x1="543.600000" y1="253.000000" x2="543.600000" y2="209.000000" stroke-width="4" stroke="darkgreen" />
<circle cx = "558.700000" cy = "341.000000" r = "5" fill = "red" stroke="red" stroke-width="1" fill-opacity = "1"/>
<line x1="558.700000" y1="341.000000" x2="558.700000" y2="297.000000" stroke-width="4" stroke="darkgreen" />
<circle cx = "573.800000" cy = "341.000000" r = "5" fill = "red" stroke="red" stroke-width="1" fill-opacity = "1"/>
<line x1="573.800000" y1="341.000000" x2="558.700000" y2="297.000000" stroke-width="4" stroke="darkgreen" />
<circle cx = "558.700000" cy = "297.000000" r = "5" fill = "black" stroke="black" stroke-width="1" fill-opacity = "1"/>
<line x1="558.700000" y1="297.000000" x2="558.700000" y2="253.000000" stroke-width="4" stroke="darkgreen" />
<circle cx = "573.800000" cy = "341.000000" r = "5" fill = "red" stroke="red" stroke-width="1" fill-opacity = "1"/>
<line x1="573.800000" y1="341.000000" x2="573.800000" y2="297.000000" stroke-width="4" stroke="darkgreen" />
<circle cx = "588.900000" cy = "341.000000" r = "5" fill = "red" stroke="red" stroke-width="1" fill-opacity = "1"/>
<line x1="588.900000" y1="341.000000" x2="573.800000" y2="297.000000" stroke-width="4" stroke="darkgreen" />
<circle cx = "573.800000" cy = "297.000000" r = "5" fill = "black" stroke="black" stroke-width="1" fill-opacity = "1"/>
<line x1="573.800000" y1="297.000000" x2="558.700000" y2="253.000000" stroke-width="4" stroke="darkgreen" />
<circle cx = "558.700000" cy = "253.000000" r = "5" fill = "red" stroke="red" stroke-width="1" fill-opacity = "1"/>
<line x1="558.700000" y1="253.000000" x2="543.600000" y2="209.000000" stroke-width="4" stroke="darkgreen" />
<circle cx = "543.600000" cy = "209.000000" r = "5" fill = "black" stroke="black" stroke-width="1" fill-opacity = "1"/>
<line x1="543.600000" y1="209.000000" x2="528.500000" y2="165.000000" stroke-width="4" stroke="darkgreen" />
<circle cx = "528.500000" cy = "165.000000" r = "5" fill = "black" stroke="black" stroke-width="1" fill-opacity = "1"/>
<line x1="528.500000" y1="165.000000" x2="528.500000" y2="121.000000" stroke-width="4" stroke="darkgreen" />
<circle cx = "543.600000" cy = "385.000000" r = "5" fill = "red" stroke="red" stroke-width="1" fill-opacity = "1"/>
<line x1="543.600000" y1="385.000000" x2="543.600000" y2="341.000000" stroke-width="4" stroke="darkgreen" />
<circle cx = "558.700000" cy = "385.000000" r = "5" fill = "red" stroke="red" stroke-width="1" fill-opacity = "1"/>
<line x1="558.700000" y1="385.000000" x2="543.600000" y2="341.000000" stroke-width="4" stroke="darkgreen" />
<circle cx = "543.600000" cy = "341.000000" r = "5" fill = "black" stroke="black" stroke-width="1" fill-opacity = "1"/>
<line x1="543.600000" y1="341.000000" x2="543.600000" y2="297.000000" stroke-width="4" stroke="darkgreen" />
<circle cx = "558.700000" cy = "341.000000" r = "5" fill = "black" stroke="black" stroke-width="1" fill-opacity = "1"/>
<line x1="558.700000" y1="341.000000" x2="543.600000" y2="297.000000" stroke-width="4" stroke="darkgreen" />
<circle cx = "543.600000" cy = "297.000000" r = "5" fill = "red" stroke="red" stroke-width="1" fill-opacity = "1"/>
<line x1="543.600000" y1="297.000000" x2="543.600000" y2="253.000000" stroke-width="4" stroke="darkgreen" />
<circle cx = "558.700000" cy = "341.000000" r = "5" fill = "red" stroke="red" stroke-width="1" fill-opacity = "1"/>
<line x1="558.700000" y1="341.000000" x2="558.700000" y2="297.000000" stroke-width="4" stroke="darkgreen" />
<circle cx = "573.800000" cy = "341.000000" r = "5" fill = "red" stroke="red" stroke-width="1" fill-opacity = "1"/>
<line x1="573.800000" y1="341.000000" x2="558.700000" y2="297.000000" stroke-width="4" stroke="darkgreen" />
<circle cx = "558.700000" cy = "297.000000" r = "5" fill = "black" stroke="black" stroke-width="1" fill-opacity = "1"/>
<line x1="558.700000" y1="297.000000" x2="543.600000" y2="253.000000" stroke-width="4" stroke="darkgreen" />
<circle cx = "543.600000" cy = "253.000000" r = "5" fill = "black" stroke="black" stroke-width="1" fill-opacity = "1"/>
<line x1="543.600000" y1="253.000000" x2="543.600000" y2="209.000000" stroke-width="4" stroke="darkgreen" />
<circle cx = "558.700000" cy = "341.000000" r = "5" fill = "red" stroke="red" stroke-width="1" fill-opacity = "1"/>
<line x1="558.700000" y1="341.000000" x2="558.700000" y2="297.000000" stroke-width="4" stroke="darkgreen" />
<circle cx = "558.700000" cy = "297.000000" r = "5" fill = "black" stroke="black" stroke-width="1" fill-opacity = "1"/>
<line x1="558.700000" y1="297.000000" x2="558.700000" y2="253.000000" stroke-width="4" stroke="darkgreen" />
<circle cx = "588.900000" cy = "341.000000" r = "5" fill = "red" stroke="red" stroke-width="1" fill-opacity = "1"/>
<line x1="588.900000" y1="341.000000" x2="573.800000" y2="297.000000" stroke-width="4" stroke="darkgreen" />
<circle cx = "573.800000" cy = "297.000000" r = "5" fill = "black" stroke="black" stroke-width="1" fill-opacity = "1"/>
<line x1="573.800000" y1="297.000000" x2="558.700000" y2="253.000000" stroke-width="4" stroke="darkgreen" />
<circle cx = "558.700000" cy = "253.000000" r = "5" fill = "black" stroke="black" stroke-width="1" fill-opacity = "1"/>
<line x1="558.700000" y1="253.000000" x2="543.600000" y2="209.000000" stroke-width="4" stroke="darkgreen" />
<circle cx = "543.600000" cy = "209.000000" r = "5" fill = "red" stroke="red" stroke-width="1" fill-opacity = "1"/>
<line x1="543.600000" y1="209.000000" x2="543.600000" y2="165.000000" stroke-width="4" stroke="darkgreen" />
<circle cx = "558.700000" cy = "253.000000" r = "5" fill = "black" stroke="black" stroke-width="1" fill-opacity = "1"/>
<line x1="558.700000" y1="253.000000" x2="558.700000" y2="209.000000" stroke-width="4" stroke="darkgreen" />
<circle cx = "573.800000" cy = "341.000000" r = "5" fill = "red" stroke="red" stroke-width="1" fill-opacity = "1"/>
<line x1="573.800000" y1="341.000000" x2="573.800000" y2="297.000000" stroke-width="4" stroke="darkgreen" />
<circle cx = "588.900000" cy = "341.000000" r = "5" fill = "red" stroke="red" stroke-width="1" fill-opacity = "1"/>
<line x1="588.900000" y1="341.000000" x2="573.800000" y2="297.000000" stroke-width="4" stroke="darkgreen" />
<circle cx = "573.800000" cy = "297.000000" r = "5" fill = "black" stroke="black" stroke-width="1" fill-opacity = "1"/>
<line x1="573.800000" y1="297.000000" x2="573.800000" y2="253.000000" stroke-width="4" stroke="darkgreen" />
<circle cx = "588.900000" cy = "297.000000" r = "5" fill = "black" stroke="black" stroke-width="1" fill-opacity = "1"/>
<line x1="588.900000" y1="297.000000" x2="573.800000" y2="253.000000" stroke-width="4" stroke="darkgreen" />
<circle cx = "573.800000" cy = "253.000000" r = "5" fill = "red" stroke="red" stroke-width="1" fill-opacity = "1"/>
<line x1="573.800000" y1="253.000000" x2="558.700000" y2="209.000000" stroke-width="4" stroke="darkgreen" />
<circle cx = "558.700000" cy = "209.000000" r = "5" fill = "black" stroke="black" stroke-width="1" fill-opacity = "1"/>
<line x1="558.700000" y1="209.000000" x2="543.600000" y2="165.000000" stroke-width="4" stroke="darkgreen" />
<circle cx = "543.600000" cy = "165.000000" r = "5" fill = "black" stroke="black" stroke-width="1" fill-opacity = "1"/>
<line x1="543.600000" y1="165.000000" x2="528.500000" y2="121.000000" stroke-width="4" stroke="darkgreen" />
<circle cx = "528.500000" cy = "121.000000" r = "5" fill = "red" stroke="red" stroke-width="1" fill-opacity = "1"/>
<line x1="528.500000" y1="121.000000" x2="528.500000" y2="77.000000" stroke-width="4" stroke="darkgreen" />
<circle cx = "558.700000" cy = "297.000000" r = "5" fill = "red" stroke="red" stroke-width="1" fill-opacity = "1"/>
<line x1="558.700000" y1="297.000000" x2="543.600000" y2="253.000000" stroke-width="4" stroke="darkgreen" />
<circle cx = "543.600000" cy = "253.000000" r = "5" fill = "black" stroke="black" stroke-width="1" fill-opacity = "1"/>
<line x1="543.600000" y1="253.000000" x2="543.600000" y2="209.000000" stroke-width="4" stroke="darkgreen" />
<circle cx = "573.800000" cy = "341.000000" r = "5" fill = "red" stroke="red" stroke-width="1" fill-opacity = "1"/>
<line x1="573.800000" y1="341.000000" x2="558.700000" y2="297.000000" stroke-width="4" stroke="darkgreen" />
<circle cx = "558.700000" cy = "297.000000" r = "5" fill = "black" stroke="black" stroke-width="1" fill-opacity = "1"/>
<line x1="558.700000" y1="297.000000" x2="558.700000" y2="253.000000" stroke-width="4" stroke="darkgreen" />
<circle cx = "573.800000" cy = "341.000000" r = "5" fill = "red" stroke="red" stroke-width="1" fill-opacity = "1"/>
<line x1="573.800000" y1="341.000000" x2="573.800000" y2="297.000000" stroke-width="4" stroke="darkgreen" />
<circle cx = "588.900000" cy = "341.000000" r = "5" fill = "red" stroke="red" stroke-width="1" fill-opacity = "1"/>
<line x1="588.900000" y1="341.000000" x2="573.800000" y2="297.000000" stroke-width="4" stroke="darkgreen" />
<circle cx = "573.800000" cy = "297.000000" r = "5" fill = "black" stroke="black" stroke-width="1" fill-opacity = "1"/>
<line x1="573.800000" y1="297.000000" x2="558.700000" y2="253.000000" stroke-width="4" stroke="darkgreen" />
<circle cx = "558.700000" cy = "253.000000" r = "5" fill = "red" stroke="red" stroke-width="1" fill-opacity = "1"/>
<line x1="558.700000" y1="253.000000" x2="543.600000" y2="209.000000" stroke-width="4" stroke="darkgreen" />
<circle cx = "543.600000" cy = "209.000000" r = "5" fill = "black" stroke="black" stroke-width="1" fill-opacity = "1"/>
<line x1="543.600000" y1="209.000000" x2="543.600000" y2="165.000000" stroke-width="4" stroke="darkgreen" />
<circle cx = "573.800000" cy = "385.000000" r = "5" fill = "red" stroke="red" stroke-width="1" fill-opacity = "1"/>
<line x1="573.800000" y1="385.000000" x2="558.700000" y2="341.000000" stroke-width="4" stroke="darkgreen" />
<circle cx = "558.700000" cy = "341.000000" r = "5" fill = "black" stroke="black" stroke-width="1" fill-opacity = "1"/>
<line x1="558.700000" y1="341.000000" x2="558.700000" y2="297.000000" stroke-width="4" stroke="darkgreen" />
<circle cx = "573.800000" cy = "341.000000" r = "5" fill = "black" stroke="black" stroke-width="1" fill-opacity = "1"/>
<line x1="573.800000" y1="341.000000" x2="558.700000" y2="297.000000" stroke-width="4" stroke="darkgreen" />
<circle cx = "558.700000" cy = "297.000000" r = "5" fill = "red" stroke="red" stroke-width="1" fill-opacity = "1"/>
<line x1="558.700000" y1="297.000000" x2="558.700000" y2="253.000000" stroke-width="4" stroke="darkgreen" />
<circle cx = "573.800000" cy = "297.000000" r = "5" fill = "black" stroke="black" stroke-width="1" fill-opacity = "1"/>
<line x1="573.800000" y1="297.000000" x2="558.700000" y2="253.000000" stroke-width="4" stroke="darkgreen" />
<circle cx = "558.700000" cy = "253.000000" r = "5" fill = "black" stroke="black" stroke-width="1" fill-opacity = "1"/>
<line x1="558.700000" y1="253.000000" x2="558.700000" y2="209.000000" stroke-width="4" stroke="darkgreen" />
<circle cx = "588.900000" cy = "341.000000" r = "5" fill = "red" stroke="red" stroke-width="1" fill-opacity = "1"/>
<line x1="588.900000" y1="341.000000" x2="573.800000" y2="297.000000" stroke-width="4" stroke="darkgreen" />
<circle cx = "573.800000" cy = "297.000000" r = "5" fill = "black" stroke="black" stroke-width="1" fill-opacity = "1"/>
<line x1="573.800000" y1="297.000000" x2="573.800000" y2="253.000000" stroke-width="4" stroke="darkgreen" />
<circle cx = "588.900000" cy = "297.000000" r = "5" fill = "black" stroke="black" stroke-width="1" fill-opacity = "1"/>
<line x1="588.900000" y1="297.000000" x2="573.800000" y2="253.000000" stroke-width="4" stroke="darkgreen" />
<circle cx = "573.800000" cy = "253.000000" r = "5" fill = "black" stroke="black" stroke-width="1" fill-opacity = "1"/>
<line x1="573.800000" y1="253.000000" x2="558.700000" y2="209.000000" stroke-width="4" stroke="darkgreen" />
<circle cx = "558.700000" cy = "209.000000" r = "5" fill = "red" stroke="red" stroke-width="1" fill-opacity = "1"/>
<line x1="558.700000" y1="209.000000" x2="543.600000" y2="165.000000" stroke-width="4" stroke="darkgreen" />
<circle cx = "543.600000" cy = "165.000000" r = "5" fill = "black" stroke="black" stroke-width="1" fill-opacity = "1"/>
<line x1="543.600000" y1="165.000000" x2="543.600000" y2="121.000000" stroke-width="4" stroke="darkgreen" />
<circle cx = "558.700000" cy = "341.000000" r = "5" fill = "red" stroke="red" stroke-width="1" fill-opacity = "1"/>
<line x1="558.700000" y1="341.000000" x2="558.700000" y2="297.000000" stroke-width="4" stroke="darkgreen" />
<circle cx = "573.800000" cy = "341.000000" r = "5" fill = "red" stroke="red" stroke-width="1" fill-opacity = "1"/>
<line x1="573.800000" y1="341.000000" x2="558.700000" y2="297.000000" stroke-width="4" stroke="darkgreen" />
<circle cx = "558.700000" cy = "297.000000" r = "5" fill = "black" stroke="black" stroke-width="1" fill-opacity = "1"/>
<line x1="558.700000" y1="297.000000" x2="558.700000" y2="253.000000" stroke-width="4" stroke="darkgreen" />
<circle cx = "573.800000" cy = "297.000000" r = "5" fill = "black" stroke="black" stroke-width="1" fill-opacity = "1"/>
<line x1="573.800000" y1="297.000000" x2="558.700000" y2="253.000000" stroke-width="4" stroke="darkgreen" />
<circle cx = "558.700000" cy = "253.000000" r = "5" fill = "red" stroke="red" stroke-width="1" fill-opacity = "1"/>
<line x1="558.700000" y1="253.000000" x2="558.700000" y2="209.000000" stroke-width="4" stroke="darkgreen" />
<circle cx = "573.800000" cy = "297.000000" r = "5" fill = "black" stroke="black" stroke-width="1" fill-opacity = "1"/>
<line x1="573.800000" y1="297.000000" x2="573.800000" y2="253.000000" stroke-width="4" stroke="darkgreen" />
<circle cx = "588.900000" cy = "341.000000" r = "5" fill = "red" stroke="red" stroke-width="1" fill-opacity = "1"/>
<line x1="588.900000" y1="341.000000" x2="588.900000" y2="297.000000" stroke-width="4" stroke="darkgreen" />
<circle cx = "604.000000" cy = "341.000000" r = "5" fill = "red" stroke="red" stroke-width="1" fill-opacity = "1"/>
<line x1="604.000000" y1="341.000000" x2="588.900000" y2="297.000000" stroke-width="4" stroke="darkgreen" />
<circle cx = "588.900000" cy = "297.000000" r = "5" fill = "black" stroke="black" stroke-width="1" fill-opacity = "1"/>
<line x1="588.900000" y1="297.000000" x2="573.800000" y2="253.000000" stroke-width="4" stroke="darkgreen" />
<circle cx = "573.800000" cy = "253.000000" r = "5" fill = "red" stroke="red" stroke-width="1" fill-opacity = "1"/>
<line x1="573.800000" y1="253.000000" x2="558.700000" y2="209.000000" stroke-width="4" stroke="darkgreen" />
<circle cx = "558.700000" cy = "209.000000" r = "5" fill = "black" stroke="black" stroke-width="1" fill-opacity = "1"/>
<line x1="558.700000" y1="209.000000" x2="558.700000" y2="165.000000" stroke-width="4" stroke="darkgreen" />
<circle cx = "588.900000" cy = "297.000000" r = "5" fill = "red" stroke="red" stroke-width="1" fill-opacity = "1"/>
<line x1="588.900000" y1="297.000000" x2="573.800000" y2="253.000000" stroke-width="4" stroke="darkgreen" />
<circle cx = "573.800000" cy = "253.000000" r = "5" fill = "black" stroke="black" stroke-width="1" fill-opacity = "1"/>
<line x1="573.800000" y1="253.000000" x2="573.800000" y2="209.000000" stroke-width="4" stroke="darkgreen" />
<circle cx = "588.900000" cy = "341.000000" r = "5" fill = "red" stroke="red" stroke-width="1" fill-opacity = "1"/>
<line x1="588.900000" y1="341.000000" x2="588.900000" y2="297.000000" stroke-width="4" stroke="darkgreen" />
<circle cx = "588.900000" cy = "297.000000" r = "5" fill = "black" stroke="black" stroke-width="1" fill-opacity = "1"/>
<line x1="588.900000" y1="297.000000" x2="588.900000" y2="253.000000" stroke-width="4" stroke="darkgreen" />
<circle cx = "604.000000" cy = "297.000000" r = "5" fill = "black" stroke="black" stroke-width="1" fill-opacity = "1"/>
<line x1="604.000000" y1="297.000000" x2="588.900000" y2="253.000000" stroke-width="4" stroke="darkgreen" />
<circle cx = "588.900000" cy = "253.000000" r = "5" fill = "red" stroke="red" stroke-width="1" fill-opacity = "1"/>
<line x1="588.900000" y1="253.000000" x2="573.800000" y2="209.000000" stroke-width="4" stroke="darkgreen" />
<circle cx = "573.800000" cy = "209.000000" r = "5" fill = "black" stroke="black" stroke-width="1" fill-opacity = "1"/>
<line x1="573.800000" y1="209.000000" x2="558.700000" y2="165.000000" stroke-width="4" stroke="darkgreen" />
<circle cx = "558.700000" cy = "165.000000" r = "5" fill = "black" stroke="black" stroke-width="1" fill-opacity = "1"/>
<line x1="558.700000" y1="165.000000" x2="543.600000" y2="121.000000" stroke-width="4" stroke="darkgreen" />
<circle cx = "543.600000" cy = "121.000000" r = "5" fill = "red" stroke="red" stroke-width="1" fill-opacity = "1"/>
<line x1="543.600000" y1="121.000000" x2="528.500000" y2="77.000000" stroke-width="4" stroke="darkgreen" />
<circle cx = "528.500000" cy = "77.000000" r = "5" fill = "black" stroke="black" stroke-width="1" fill-opacity = "1"/>
<line x1="528.500000" y1="77.000000" x2="513.400000" y2="33.000000" stroke-width="4" stroke="darkgreen" />
<circle cx = "513.400000" cy = "33.000000" r = "5" fill = "black" stroke="black" stroke-width="1" fill-opacity = "1"/>
<line x1="513.400000" y1="33.000000" x2="340.000000" y2="33.000000" stroke-width="4" stroke="darkgreen" />
<text x="523.400000" y="33.000000" font-family= "Verdana"  font-size="40">root</text>
</svg>
