<svg>
<line x1="90.000000" y1="310.000000" x2="120.000000" y2="270.000000" stroke-width="4" stroke="darkgreen" />
<circle cx = "90.000000" cy = "310.000000" r = "10" fill = "black" stroke="black" stroke-width="1" fill-opacity = "1"/>
<line x1="135.000000" y1="350.000000" x2="150.000000" y2="310.000000" stroke-width="4" stroke="darkgreen" />
<circle cx = "135.000000" cy = "350.000000" r = "10" fill = "red" stroke="red" stroke-width="1" fill-opacity = "1"/>
<line x1="150.000000" y1="310.000000" x2="120.000000" y2="270.000000" stroke-width="4" stroke="darkgreen" />
<circle cx = "150.000000" cy = "310.000000" r = "10" fill = "black" stroke="black" stroke-width="1" fill-opacity = "1"/>
<line x1="120.000000" y1="270.000000" x2="195.000000" y2="230.000000" stroke-width="4" stroke="darkgreen" />
<circle cx = "120.000000" cy = "270.000000" r = "10" fill = "red" stroke="red" stroke-width="1" fill-opacity = "1"/>
<line x1="240.000000" y1="310.000000" x2="270.000000" y2="270.000000" stroke-width="4" stroke="darkgreen" />
<circle cx = "240.000000" cy = "310.000000" r = "10" fill = "red" stroke="red" stroke-width="1" fill-opacity = "1"/>
<line x1="300.000000" y1="310.000000" x2="270.000000" y2="270.000000" stroke-width="4" stroke="darkgreen" />
<circle cx = "300.000000" cy = "310.000000" r = "10" fill = "red" stroke="red" stroke-width="1" fill-opacity = "1"/>
<line x1="270.000000" y1="270.000000" x2="195.000000" y2="230.000000" stroke-width="4" stroke="darkgreen" />
<circle cx = "270.000000" cy = "270.000000" r = "10" fill = "black" stroke="black" stroke-width="1" fill-opacity = "1"/>
<line x1="195.000000" y1="230.000000" x2="345.000000" y2="190.000000" stroke-width="4" stroke="darkgreen" />
<circle cx = "195.000000" cy = "230.000000" r = "10" fill = "black" stroke="black" stroke-width="1" fill-opacity = "1"/>
<line x1="450.000000" y1="310.000000" x2="420.000000" y2="270.000000" stroke-width="4" stroke="darkgreen" />
<circle cx = "450.000000" cy = "310.000000" r = "10" fill = "red" stroke="red" stroke-width="1" fill-opacity = "1"/>
<line x1="420.000000" y1="270.000000" x2="495.000000" y2="230.000000" stroke-width="4" stroke="darkgreen" />
<circle cx = "420.000000" cy = "270.000000" r = "10" fill = "black" stroke="black" stroke-width="1" fill-opacity = "1"/>
<line x1="570.000000" y1="270.000000" x2="495.000000" y2="230.000000" stroke-width="4" stroke="darkgreen" />
<circle cx = "570.000000" cy = "270.000000" r = "10" fill = "black" stroke="black" stroke-width="1" fill-opacity = "1"/>
<line x1="495.000000" y1="230.000000" x2="345.000000" y2="190.000000" stroke-width="4" stroke="darkgreen" />
<circle cx = "495.000000" cy = "230.000000" r = "10" fill = "black" stroke="black" stroke-width="1" fill-opacity = "1"/>
<line x1="345.000000" y1="190.000000" x2="645.000000" y2="150.000000" stroke-width="4" stroke="darkgreen" />
<circle cx = "345.000000" cy = "190.000000" r = "10" fill = "red" stroke="red" stroke-width="1" fill-opacity = "1"/>
<line x1="750.000000" y1="310.000000" x2="720.000000" y2="270.000000" stroke-width="4" stroke="darkgreen" />
<circle cx = "750.000000" cy = "310.000000" r = "10" fill = "red" stroke="red" stroke-width="1" fill-opacity = "1"/>
<line x1="720.000000" y1="270.000000" x2="795.000000" y2="230.000000" stroke-width="4" stroke="darkgreen" />
<circle cx = "720.000000" cy = "270.000000" r = "10" fill = "black" stroke="black" stroke-width="1" fill-opacity = "1"/>
<line x1="840.000000" y1="310.000000" x2="870.000000" y2="270.000000" stroke-width="4" stroke="darkgreen" />
<circle cx = "840.000000" cy = "310.000000" r = "10" fill = "red" stroke="red" stroke-width="1" fill-opacity = "1"/>
<line x1="870.000000" y1="270.000000" x2="795.000000" y2="230.000000" stroke-width="4" stroke="darkgreen" />
<circle cx = "870.000000" cy = "270.000000" r = "10" fill = "black" stroke="black" stroke-width="1" fill-opacity = "1"/>
<line x1="795.000000" y1="230.000000" x2="945.000000" y2="190.000000" stroke-width="4" stroke="darkgreen" />
<circle cx = "795.000000" cy = "230.000000" r = "10" fill = "red" stroke="red" stroke-width="1" fill-opacity = "1"/>
<line x1="1050.000000" y1="310.000000" x2="1020.000000" y2="270.000000" stroke-width="4" stroke="darkgreen" />
<circle cx = "1050.000000" cy = "310.000000" r = "10" fill = "red" stroke="red" stroke-width="1" fill-opacity = "1"/>
<line x1="1020.000000" y1="270.000000" x2="1095.000000" y2="230.000000" stroke-width="4" stroke="darkgreen" />
<circle cx = "1020.000000" cy = "270.000000" r = "10" fill = "black" stroke="black" stroke-width="1" fill-opacity = "1"/>
<line x1="1170.000000" y1="270.000000" x2="1095.000000" y2="230.000000" stroke-width="4" stroke="darkgreen" />
<circle cx = "1170.000000" cy = "270.000000" r = "10" fill = "black" stroke="black" stroke-width="1" fill-opacity = "1"/>
<line x1="1095.000000" y1="230.000000" x2="945.000000" y2="190.000000" stroke-width="4" stroke="darkgreen" />
<circle cx = "1095.000000" cy = "230.000000" r = "10" fill = "red" stroke="red" stroke-width="1" fill-opacity = "1"/>
<line x1="945.000000" y1="190.000000" x2="645.000000" y2="150.000000" stroke-width="4" stroke="darkgreen" />
<circle cx = "945.000000" cy = "190.000000" r = "10" fill = "black" stroke="black" stroke-width="1" fill-opacity = "1"/>
<line x1="645.000000" y1="150.000000" x2="1260.000000" y2="110.000000" stroke-width="4" stroke="darkgreen" />
<circle cx = "645.000000" cy = "150.000000" r = "10" fill = "black" stroke="black" stroke-width="1" fill-opacity = "1"/>
<line x1="1320.000000" y1="310.000000" x2="1350.000000" y2="270.000000" stroke-width="4" stroke="darkgreen" />
<circle cx = "1320.000000" cy = "310.000000" r = "10" fill = "red" stroke="red" stroke-width="1" fill-opacity = "1"/>
<line x1="1380.000000" y1="310.000000" x2="1350.000000" y2="270.000000" stroke-width="4" stroke="darkgreen" />
<circle cx = "1380.000000" cy = "310.000000" r = "10" fill = "red" stroke="red" stroke-width="1" fill-opacity = "1"/>
<line x1="1350.000000" y1="270.000000" x2="1425.000000" y2="230.000000" stroke-width="4" stroke="darkgreen" />
<circle cx = "1350.000000" cy = "270.000000" r = "10" fill = "black" stroke="black" stroke-width="1" fill-opacity = "1"/>
<line x1="1500.000000" y1="270.000000" x2="1425.000000" y2="230.000000" stroke-width="4" stroke="darkgreen" />
<circle cx = "1500.000000" cy = "270.000000" r = "10" fill = "black" stroke="black" stroke-width="1" fill-opacity = "1"/>
<line x1="1425.000000" y1="230.000000" x2="1575.000000" y2="190.000000" stroke-width="4" stroke="darkgreen" />
<circle cx = "1425.000000" cy = "230.000000" r = "10" fill = "red" stroke="red" stroke-width="1" fill-opacity = "1"/>
<line x1="1650.000000" y1="270.000000" x2="1725.000000" y2="230.000000" stroke-width="4" stroke="darkgreen" />
<circle cx = "1650.000000" cy = "270.000000" r = "10" fill = "black" stroke="black" stroke-width="1" fill-opacity = "1"/>
<line x1="1770.000000" y1="310.000000" x2="1800.000000" y2="270.000000" stroke-width="4" stroke="darkgreen" />
<circle cx = "1770.000000" cy = "310.000000" r = "10" fill = "red" stroke="red" stroke-width="1" fill-opacity = "1"/>
<line x1="1830.000000" y1="310.000000" x2="1800.000000" y2="270.000000" stroke-width="4" stroke="darkgreen" />
<circle cx = "1830.000000" cy = "310.000000" r = "10" fill = "red" stroke="red" stroke-width="1" fill-opacity = "1"/>
<line x1="1800.000000" y1="270.000000" x2="1725.000000" y2="230.000000" stroke-width="4" stroke="darkgreen" />
<circle cx = "1800.000000" cy = "270.000000" r = "10" fill = "black" stroke="black" stroke-width="1" fill-opacity = "1"/>
<line x1="1725.000000" y1="230.000000" x2="1575.000000" y2="190.000000" stroke-width="4" stroke="darkgreen" />
<circle cx = "1725.000000" cy = "230.000000" r = "10" fill = "red" stroke="red" stroke-width="1" fill-opacity = "1"/>
<line x1="1575.000000" y1="190.000000" x2="1875.000000" y2="150.000000" stroke-width="4" stroke="darkgreen" />
<circle cx = "1575.000000" cy = "190.000000" r = "10" fill = "black" stroke="black" stroke-width="1" fill-opacity = "1"/>
<line x1="1920.000000" y1="310.000000" x2="1950.000000" y2="270.000000" stroke-width="4" stroke="darkgreen" />
<circle cx = "1920.000000" cy = "310.000000" r = "10" fill = "red" stroke="red" stroke-width="1" fill-opacity = "1"/>
<line x1="1980.000000" y1="310.000000" x2="1950.000000" y2="270.000000" stroke-width="4" stroke="darkgreen" />
<circle cx = "1980.000000" cy = "310.000000" r = "10" fill = "red" stroke="red" stroke-width="1" fill-opacity = "1"/>
<line x1="1950.000000" y1="270.000000" x2="2025.000000" y2="230.000000" stroke-width="4" stroke="darkgreen" />
<circle cx = "1950.000000" cy = "270.000000" r = "10" fill = "black" stroke="black" stroke-width="1" fill-opacity = "1"/>
<line x1="2070.000000" y1="310.000000" x2="2100.000000" y2="270.000000" stroke-width="4" stroke="darkgreen" />
<circle cx = "2070.000000" cy = "310.000000" r = "10" fill = "red" stroke="red" stroke-width="1" fill-opacity = "1"/>
<line x1="2100.000000" y1="270.000000" x2="2025.000000" y2="230.000000" stroke-width="4" stroke="darkgreen" />
<circle cx = "2100.000000" cy = "270.000000" r = "10" fill = "black" stroke="black" stroke-width="1" fill-opacity = "1"/>
<line x1="2025.000000" y1="230.000000" x2="2175.000000" y2="190.000000" stroke-width="4" stroke="darkgreen" />
<circle cx = "2025.000000" cy = "230.000000" r = "10" fill = "black" stroke="black" stroke-width="1" fill-opacity = "1"/>
<line x1="2205.000000" y1="350.000000" x2="2220.000000" y2="310.000000" stroke-width="4" stroke="darkgreen" />
<circle cx = "2205.000000" cy = "350.000000" r = "10" fill = "red" stroke="red" stroke-width="1" fill-opacity = "1"/>
<line x1="2220.000000" y1="310.000000" x2="2250.000000" y2="270.000000" stroke-width="4" stroke="darkgreen" />
<circle cx = "2220.000000" cy = "310.000000" r = "10" fill = "black" stroke="black" stroke-width="1" fill-opacity = "1"/>
<line x1="2280.000000" y1="310.000000" x2="2250.000000" y2="270.000000" stroke-width="4" stroke="darkgreen" />
<circle cx = "2280.000000" cy = "310.000000" r = "10" fill = "black" stroke="black" stroke-width="1" fill-opacity = "1"/>
<line x1="2250.000000" y1="270.000000" x2="2325.000000" y2="230.000000" stroke-width="4" stroke="darkgreen" />
<circle cx = "2250.000000" cy = "270.000000" r = "10" fill = "red" stroke="red" stroke-width="1" fill-opacity = "1"/>
<line x1="2370.000000" y1="310.000000" x2="2400.000000" y2="270.000000" stroke-width="4" stroke="darkgreen" />
<circle cx = "2370.000000" cy = "310.000000" r = "10" fill = "red" stroke="red" stroke-width="1" fill-opacity = "1"/>
<line x1="2400.000000" y1="270.000000" x2="2325.000000" y2="230.000000" stroke-width="4" stroke="darkgreen" />
<circle cx = "2400.000000" cy = "270.000000" r = "10" fill = "black" stroke="black" stroke-width="1" fill-opacity = "1"/>
<line x1="2325.000000" y1="230.000000" x2="2175.000000" y2="190.000000" stroke-width="4" stroke="darkgreen" />
<circle cx = "2325.000000" cy = "230.000000" r = "10" fill = "black" stroke="black" stroke-width="1" fill-opacity = "1"/>
<line x1="2175.000000" y1="190.000000" x2="1875.000000" y2="150.000000" stroke-width="4" stroke="darkgreen" />
<circle cx = "2175.000000" cy = "190.000000" r = "10" fill = "red" stroke="red" stroke-width="1" fill-opacity = "1"/>
<line x1="1875.000000" y1="150.000000" x2="1260.000000" y2="110.000000" stroke-width="4" stroke="darkgreen" />
<circle cx = "1875.000000" cy = "150.000000" r = "10" fill = "black" stroke="black" stroke-width="1" fill-opacity = "1"/>
<line x1="1260.000000" y1="110.000000" x2="2490.000000" y2="70.000000" stroke-width="4" stroke="darkgreen" />
<circle cx = "1260.000000" cy = "110.000000" r = "10" fill = "red" stroke="red" stroke-width="1" fill-opacity = "1"/>
<line x1="2580.000000" y1="270.000000" x2="2655.000000" y2="230.000000" stroke-width="4" stroke="darkgreen" />
<circle cx = "2580.000000" cy = "270.000000" r = "10" fill = "black" stroke="black" stroke-width="1" fill-opacity = "1"/>
<line x1="2700.000000" y1="310.000000" x2="2730.000000" y2="270.000000" stroke-width="4" stroke="darkgreen" />
<circle cx = "2700.000000" cy = "310.000000" r = "10" fill = "black" stroke="black" stroke-width="1" fill-opacity = "1"/>
<line x1="2745.000000" y1="350.000000" x2="2760.000000" y2="310.000000" stroke-width="4" stroke="darkgreen" />
<circle cx = "2745.000000" cy = "350.000000" r = "10" fill = "red" stroke="red" stroke-width="1" fill-opacity = "1"/>
<line x1="2760.000000" y1="310.000000" x2="2730.000000" y2="270.000000" stroke-width="4" stroke="darkgreen" />
<circle cx = "2760.000000" cy = "310.000000" r = "10" fill = "black" stroke="black" stroke-width="1" fill-opacity = "1"/>
<line x1="2730.000000" y1="270.000000" x2="2655.000000" y2="230.000000" stroke-width="4" stroke="darkgreen" />
<circle cx = "2730.000000" cy = "270.000000" r = "10" fill = "red" stroke="red" stroke-width="1" fill-opacity = "1"/>
<line x1="2655.000000" y1="230.000000" x2="2805.000000" y2="190.000000" stroke-width="4" stroke="darkgreen" />
<circle cx = "2655.000000" cy = "230.000000" r = "10" fill = "black" stroke="black" stroke-width="1" fill-opacity = "1"/>
<line x1="2910.000000" y1="310.000000" x2="2880.000000" y2="270.000000" stroke-width="4" stroke="darkgreen" />
<circle cx = "2910.000000" cy = "310.000000" r = "10" fill = "red" stroke="red" stroke-width="1" fill-opacity = "1"/>
<line x1="2880.000000" y1="270.000000" x2="2955.000000" y2="230.000000" stroke-width="4" stroke="darkgreen" />
<circle cx = "2880.000000" cy = "270.000000" r = "10" fill = "black" stroke="black" stroke-width="1" fill-opacity = "1"/>
<line x1="3060.000000" y1="310.000000" x2="3030.000000" y2="270.000000" stroke-width="4" stroke="darkgreen" />
<circle cx = "3060.000000" cy = "310.000000" r = "10" fill = "red" stroke="red" stroke-width="1" fill-opacity = "1"/>
<line x1="3030.000000" y1="270.000000" x2="2955.000000" y2="230.000000" stroke-width="4" stroke="darkgreen" />
<circle cx = "3030.000000" cy = "270.000000" r = "10" fill = "black" stroke="black" stroke-width="1" fill-opacity = "1"/>
<line x1="2955.000000" y1="230.000000" x2="2805.000000" y2="190.000000" stroke-width="4" stroke="darkgreen" />
<circle cx = "2955.000000" cy = "230.000000" r = "10" fill = "black" stroke="black" stroke-width="1" fill-opacity = "1"/>
<line x1="2805.000000" y1="190.000000" x2="3105.000000" y2="150.000000" stroke-width="4" stroke="darkgreen" />
<circle cx = "2805.000000" cy = "190.000000" r = "10" fill = "red" stroke="red" stroke-width="1" fill-opacity = "1"/>
<line x1="3150.000000" y1="310.000000" x2="3180.000000" y2="270.000000" stroke-width="4" stroke="darkgreen" />
<circle cx = "3150.000000" cy = "310.000000" r = "10" fill = "red" stroke="red" stroke-width="1" fill-opacity = "1"/>
<line x1="3180.000000" y1="270.000000" x2="3255.000000" y2="230.000000" stroke-width="4" stroke="darkgreen" />
<circle cx = "3180.000000" cy = "270.000000" r = "10" fill = "black" stroke="black" stroke-width="1" fill-opacity = "1"/>
<line x1="3285.000000" y1="350.000000" x2="3300.000000" y2="310.000000" stroke-width="4" stroke="darkgreen" />
<circle cx = "3285.000000" cy = "350.000000" r = "10" fill = "red" stroke="red" stroke-width="1" fill-opacity = "1"/>
<line x1="3300.000000" y1="310.000000" x2="3330.000000" y2="270.000000" stroke-width="4" stroke="darkgreen" />
<circle cx = "3300.000000" cy = "310.000000" r = "10" fill = "black" stroke="black" stroke-width="1" fill-opacity = "1"/>
<line x1="3345.000000" y1="350.000000" x2="3360.000000" y2="310.000000" stroke-width="4" stroke="darkgreen" />
<circle cx = "3345.000000" cy = "350.000000" r = "10" fill = "red" stroke="red" stroke-width="1" fill-opacity = "1"/>
<line x1="3375.000000" y1="350.000000" x2="3360.000000" y2="310.000000" stroke-width="4" stroke="darkgreen" />
<circle cx = "3375.000000" cy = "350.000000" r = "10" fill = "red" stroke="red" stroke-width="1" fill-opacity = "1"/>
<line x1="3360.000000" y1="310.000000" x2="3330.000000" y2="270.000000" stroke-width="4" stroke="darkgreen" />
<circle cx = "3360.000000" cy = "310.000000" r = "10" fill = "black" stroke="black" stroke-width="1" fill-opacity = "1"/>
<line x1="3330.000000" y1="270.000000" x2="3255.000000" y2="230.000000" stroke-width="4" stroke="darkgreen" />
<circle cx = "3330.000000" cy = "270.000000" r = "10" fill = "red" stroke="red" stroke-width="1" fill-opacity = "1"/>
<line x1="3255.000000" y1="230.000000" x2="3405.000000" y2="190.000000" stroke-width="4" stroke="darkgreen" />
<circle cx = "3255.000000" cy = "230.000000" r = "10" fill = "black" stroke="black" stroke-width="1" fill-opacity = "1"/>
<line x1="3450.000000" y1="310.000000" x2="3480.000000" y2="270.000000" stroke-width="4" stroke="darkgreen" />
<circle cx = "3450.000000" cy = "310.000000" r = "10" fill = "black" stroke="black" stroke-width="1" fill-opacity = "1"/>
<line x1="3510.000000" y1="310.000000" x2="3480.000000" y2="270.000000" stroke-width="4" stroke="darkgreen" />
<circle cx = "3510.000000" cy = "310.000000" r = "10" fill = "black" stroke="black" stroke-width="1" fill-opacity = "1"/>
<line x1="3480.000000" y1="270.000000" x2="3555.000000" y2="230.000000" stroke-width="4" stroke="darkgreen" />
<circle cx = "3480.000000" cy = "270.000000" r = "10" fill = "red" stroke="red" stroke-width="1" fill-opacity = "1"/>
<line x1="3615.000000" y1="350.000000" x2="3600.000000" y2="310.000000" stroke-width="4" stroke="darkgreen" />
<circle cx = "3615.000000" cy = "350.000000" r = "10" fill = "red" stroke="red" stroke-width="1" fill-opacity = "1"/>
<line x1="3600.000000" y1="310.000000" x2="3630.000000" y2="270.000000" stroke-width="4" stroke="darkgreen" />
<circle cx = "3600.000000" cy = "310.000000" r = "10" fill = "black" stroke="black" stroke-width="1" fill-opacity = "1"/>
<line x1="3660.000000" y1="310.000000" x2="3630.000000" y2="270.000000" stroke-width="4" stroke="darkgreen" />
<circle cx = "3660.000000" cy = "310.000000" r = "10" fill = "black" stroke="black" stroke-width="1" fill-opacity = "1"/>
<line x1="3630.000000" y1="270.000000" x2="3555.000000" y2="230.000000" stroke-width="4" stroke="darkgreen" />
<circle cx = "3630.000000" cy = "270.000000" r = "10" fill = "red" stroke="red" stroke-width="1" fill-opacity = "1"/>
<line x1="3555.000000" y1="230.000000" x2="3405.000000" y2="190.000000" stroke-width="4" stroke="darkgreen" />
<circle cx = "3555.000000" cy = "230.000000" r = "10" fill = "black" stroke="black" stroke-width="1" fill-opacity = "1"/>
<line x1="3405.000000" y1="190.000000" x2="3105.000000" y2="150.000000" stroke-width="4" stroke="darkgreen" />
<circle cx = "3405.000000" cy = "190.000000" r = "10" fill = "red" stroke="red" stroke-width="1" fill-opacity = "1"/>
<line x1="3105.000000" y1="150.000000" x2="3720.000000" y2="110.000000" stroke-width="4" stroke="darkgreen" />
<circle cx = "3105.000000" cy = "150.000000" r = "10" fill = "black" stroke="black" stroke-width="1" fill-opacity = "1"/>
<line x1="3780.000000" y1="310.000000" x2="3810.000000" y2="270.000000" stroke-width="4" stroke="darkgreen" />
<circle cx = "3780.000000" cy = "310.000000" r = "10" fill = "red" stroke="red" stroke-width="1" fill-opacity = "1"/>
<line x1="3810.000000" y1="270.000000" x2="3885.000000" y2="230.000000" stroke-width="4" stroke="darkgreen" />
<circle cx = "3810.000000" cy = "270.000000" r = "10" fill = "black" stroke="black" stroke-width="1" fill-opacity = "1"/>
<line x1="3915.000000" y1="350.000000" x2="3930.000000" y2="310.000000" stroke-width="4" stroke="darkgreen" />
<circle cx = "3915.000000" cy = "350.000000" r = "10" fill = "red" stroke="red" stroke-width="1" fill-opacity = "1"/>
<line x1="3930.000000" y1="310.000000" x2="3960.000000" y2="270.000000" stroke-width="4" stroke="darkgreen" />
<circle cx = "3930.000000" cy = "310.000000" r = "10" fill = "black" stroke="black" stroke-width="1" fill-opacity = "1"/>
<line x1="3975.000000" y1="350.000000" x2="3990.000000" y2="310.000000" stroke-width="4" stroke="darkgreen" />
<circle cx = "3975.000000" cy = "350.000000" r = "10" fill = "red" stroke="red" stroke-width="1" fill-opacity = "1"/>
<line x1="4005.000000" y1="350.000000" x2="3990.000000" y2="310.000000" stroke-width="4" stroke="darkgreen" />
<circle cx = "4005.000000" cy = "350.000000" r = "10" fill = "red" stroke="red" stroke-width="1" fill-opacity = "1"/>
<line x1="3990.000000" y1="310.000000" x2="3960.000000" y2="270.000000" stroke-width="4" stroke="darkgreen" />
<circle cx = "3990.000000" cy = "310.000000" r = "10" fill = "black" stroke="black" stroke-width="1" fill-opacity = "1"/>
<line x1="3960.000000" y1="270.000000" x2="3885.000000" y2="230.000000" stroke-width="4" stroke="darkgreen" />
<circle cx = "3960.000000" cy = "270.000000" r = "10" fill = "red" stroke="red" stroke-width="1" fill-opacity = "1"/>
<line x1="3885.000000" y1="230.000000" x2="4035.000000" y2="190.000000" stroke-width="4" stroke="darkgreen" />
<circle cx = "3885.000000" cy = "230.000000" r = "10" fill = "black" stroke="black" stroke-width="1" fill-opacity = "1"/>
<line x1="4080.000000" y1="310.000000" x2="4110.000000" y2="270.000000" stroke-width="4" stroke="darkgreen" />
<circle cx = "4080.000000" cy = "310.000000" r = "10" fill = "red" stroke="red" stroke-width="1" fill-opacity = "1"/>
<line x1="4110.000000" y1="270.000000" x2="4185.000000" y2="230.000000" stroke-width="4" stroke="darkgreen" />
<circle cx = "4110.000000" cy = "270.000000" r = "10" fill = "black" stroke="black" stroke-width="1" fill-opacity = "1"/>
<line x1="4230.000000" y1="310.000000" x2="4260.000000" y2="270.000000" stroke-width="4" stroke="darkgreen" />
<circle cx = "4230.000000" cy = "310.000000" r = "10" fill = "red" stroke="red" stroke-width="1" fill-opacity = "1"/>
<line x1="4260.000000" y1="270.000000" x2="4185.000000" y2="230.000000" stroke-width="4" stroke="darkgreen" />
<circle cx = "4260.000000" cy = "270.000000" r = "10" fill = "black" stroke="black" stroke-width="1" fill-opacity = "1"/>
<line x1="4185.000000" y1="230.000000" x2="4035.000000" y2="190.000000" stroke-width="4" stroke="darkgreen" />
<circle cx = "4185.000000" cy = "230.000000" r = "10" fill = "black" stroke="black" stroke-width="1" fill-opacity = "1"/>
<line x1="4035.000000" y1="190.000000" x2="4335.000000" y2="150.000000" stroke-width="4" stroke="darkgreen" />
<circle cx = "4035.000000" cy = "190.000000" r = "10" fill = "red" stroke="red" stroke-width="1" fill-opacity = "1"/>
<line x1="4485.000000" y1="230.000000" x2="4635.000000" y2="190.000000" stroke-width="4" stroke="darkgreen" />
<circle cx = "4485.000000" cy = "230.000000" r = "10" fill = "black" stroke="black" stroke-width="1" fill-opacity = "1"/>
<line x1="4710.000000" y1="270.000000" x2="4785.000000" y2="230.000000" stroke-width="4" stroke="darkgreen" />
<circle cx = "4710.000000" cy = "270.000000" r = "10" fill = "black" stroke="black" stroke-width="1" fill-opacity = "1"/>
<line x1="4830.000000" y1="310.000000" x2="4860.000000" y2="270.000000" stroke-width="4" stroke="darkgreen" />
<circle cx = "4830.000000" cy = "310.000000" r = "10" fill = "red" stroke="red" stroke-width="1" fill-opacity = "1"/>
<line x1="4860.000000" y1="270.000000" x2="4785.000000" y2="230.000000" stroke-width="4" stroke="darkgreen" />
<circle cx = "4860.000000" cy = "270.000000" r = "10" fill = "black" stroke="black" stroke-width="1" fill-opacity = "1"/>
<line x1="4785.000000" y1="230.000000" x2="4635.000000" y2="190.000000" stroke-width="4" stroke="darkgreen" />
<circle cx = "4785.000000" cy = "230.000000" r = "10" fill = "red" stroke="red" stroke-width="1" fill-opacity = "1"/>
<line x1="4635.000000" y1="190.000000" x2="4335.000000" y2="150.000000" stroke-width="4" stroke="darkgreen" />
<circle cx = "4635.000000" cy = "190.000000" r = "10" fill = "black" stroke="black" stroke-width="1" fill-opacity = "1"/>
<line x1="4335.000000" y1="150.000000" x2="3720.000000" y2="110.000000" stroke-width="4" stroke="darkgreen" />
<circle cx = "4335.000000" cy = "150.000000" r = "10" fill = "black" stroke="black" stroke-width="1" fill-opacity = "1"/>
<line x1="3720.000000" y1="110.000000" x2="2490.000000" y2="70.000000" stroke-width="4" stroke="darkgreen" />
<circle cx = "3720.000000" cy = "110.000000" r = "10" fill = "red" stroke="red" stroke-width="1" fill-opacity = "1"/>
<line x1="2490.000000" y1="70.000000" x2="4965.000000" y2="30.000000" stroke-width="4" stroke="darkgreen" />
<circle cx = "2490.000000" cy = "70.000000" r = "10" fill = "black" stroke="black" stroke-width="1" fill-opacity = "1"/>
<line x1="5040.000000" y1="310.000000" x2="5070.000000" y2="270.000000" stroke-width="4" stroke="darkgreen" />
<circle cx = "5040.000000" cy = "310.000000" r = "10" fill = "red" stroke="red" stroke-width="1" fill-opacity = "1"/>
<line x1="5070.000000" y1="270.000000" x2="5145.000000" y2="230.000000" stroke-width="4" stroke="darkgreen" />
<circle cx = "5070.000000" cy = "270.000000" r = "10" fill = "black" stroke="black" stroke-width="1" fill-opacity = "1"/>
<line x1="5190.000000" y1="310.000000" x2="5220.000000" y2="270.000000" stroke-width="4" stroke="darkgreen" />
<circle cx = "5190.000000" cy = "310.000000" r = "10" fill = "red" stroke="red" stroke-width="1" fill-opacity = "1"/>
<line x1="5220.000000" y1="270.000000" x2="5145.000000" y2="230.000000" stroke-width="4" stroke="darkgreen" />
<circle cx = "5220.000000" cy = "270.000000" r = "10" fill = "black" stroke="black" stroke-width="1" fill-opacity = "1"/>
<line x1="5145.000000" y1="230.000000" x2="5295.000000" y2="190.000000" stroke-width="4" stroke="darkgreen" />
<circle cx = "5145.000000" cy = "230.000000" r = "10" fill = "red" stroke="red" stroke-width="1" fill-opacity = "1"/>
<line x1="5340.000000" y1="310.000000" x2="5370.000000" y2="270.000000" stroke-width="4" stroke="darkgreen" />
<circle cx = "5340.000000" cy = "310.000000" r = "10" fill = "red" stroke="red" stroke-width="1" fill-opacity = "1"/>
<line x1="5400.000000" y1="310.000000" x2="5370.000000" y2="270.000000" stroke-width="4" stroke="darkgreen" />
<circle cx = "5400.000000" cy = "310.000000" r = "10" fill = "red" stroke="red" stroke-width="1" fill-opacity = "1"/>
<line x1="5370.000000" y1="270.000000" x2="5445.000000" y2="230.000000" stroke-width="4" stroke="darkgreen" />
<circle cx = "5370.000000" cy = "270.000000" r = "10" fill = "black" stroke="black" stroke-width="1" fill-opacity = "1"/>
<line x1="5520.000000" y1="270.000000" x2="5445.000000" y2="230.000000" stroke-width="4" stroke="darkgreen" />
<circle cx = "5520.000000" cy = "270.000000" r = "10" fill = "black" stroke="black" stroke-width="1" fill-opacity = "1"/>
<line x1="5445.000000" y1="230.000000" x2="5295.000000" y2="190.000000" stroke-width="4" stroke="darkgreen" />
<circle cx = "5445.000000" cy = "230.000000" r = "10" fill = "red" stroke="red" stroke-width="1" fill-opacity = "1"/>
<line x1="5295.000000" y1="190.000000" x2="5595.000000" y2="150.000000" stroke-width="4" stroke="darkgreen" />
<circle cx = "5295.000000" cy = "190.000000" r = "10" fill = "black" stroke="black" stroke-width="1" fill-opacity = "1"/>
<line x1="5640.000000" y1="310.000000" x2="5670.000000" y2="270.000000" stroke-width="4" stroke="darkgreen" />
<circle cx = "5640.000000" cy = "310.000000" r = "10" fill = "red" stroke="red" stroke-width="1" fill-opacity = "1"/>
<line x1="5700.000000" y1="310.000000" x2="5670.000000" y2="270.000000" stroke-width="4" stroke="darkgreen" />
<circle cx = "5700.000000" cy = "310.000000" r = "10" fill = "red" stroke="red" stroke-width="1" fill-opacity = "1"/>
<line x1="5670.000000" y1="270.000000" x2="5745.000000" y2="230.000000" stroke-width="4" stroke="darkgreen" />
<circle cx = "5670.000000" cy = "270.000000" r = "10" fill = "black" stroke="black" stroke-width="1" fill-opacity = "1"/>
<line x1="5790.000000" y1="310.000000" x2="5820.000000" y2="270.000000" stroke-width="4" stroke="darkgreen" />
<circle cx = "5790.000000" cy = "310.000000" r = "10" fill = "red" stroke="red" stroke-width="1" fill-opacity = "1"/>
<line x1="5850.000000" y1="310.000000" x2="5820.000000" y2="270.000000" stroke-width="4" stroke="darkgreen" />
<circle cx = "5850.000000" cy = "310.000000" r = "10" fill = "red" stroke="red" stroke-width="1" fill-opacity = "1"/>
<line x1="5820.000000" y1="270.000000" x2="5745.000000" y2="230.000000" stroke-width="4" stroke="darkgreen" />
<circle cx = "5820.000000" cy = "270.000000" r = "10" fill = "black" stroke="black" stroke-width="1" fill-opacity = "1"/>
<line x1="5745.000000" y1="230.000000" x2="5895.000000" y2="190.000000" stroke-width="4" stroke="darkgreen" />
<circle cx = "5745.000000" cy = "230.000000" r = "10" fill = "red" stroke="red" stroke-width="1" fill-opacity = "1"/>
<line x1="5940.000000" y1="310.000000" x2="5970.000000" y2="270.000000" stroke-width="4" stroke="darkgreen" />
<circle cx = "5940.000000" cy = "310.000000" r = "10" fill = "red" stroke="red" stroke-width="1" fill-opacity = "1"/>
<line x1="6000.000000" y1="310.000000" x2="5970.000000" y2="270.000000" stroke-width="4" stroke="darkgreen" />
<circle cx = "6000.000000" cy = "310.000000" r = "10" fill = "red" stroke="red" stroke-width="1" fill-opacity = "1"/>
<line x1="5970.000000" y1="270.000000" x2="6045.000000" y2="230.000000" stroke-width="4" stroke="darkgreen" />
<circle cx = "5970.000000" cy = "270.000000" r = "10" fill = "black" stroke="black" stroke-width="1" fill-opacity = "1"/>
<line x1="6090.000000" y1="310.000000" x2="6120.000000" y2="270.000000" stroke-width="4" stroke="darkgreen" />
<circle cx = "6090.000000" cy = "310.000000" r = "10" fill = "red" stroke="red" stroke-width="1" fill-opacity = "1"/>
<line x1="6150.000000" y1="310.000000" x2="6120.000000" y2="270.000000" stroke-width="4" stroke="darkgreen" />
<circle cx = "6150.000000" cy = "310.000000" r = "10" fill = "red" stroke="red" stroke-width="1" fill-opacity = "1"/>
<line x1="6120.000000" y1="270.000000" x2="6045.000000" y2="230.000000" stroke-width="4" stroke="darkgreen" />
<circle cx = "6120.000000" cy = "270.000000" r = "10" fill = "black" stroke="black" stroke-width="1" fill-opacity = "1"/>
<line x1="6045.000000" y1="230.000000" x2="5895.000000" y2="190.000000" stroke-width="4" stroke="darkgreen" />
<circle cx = "6045.000000" cy = "230.000000" r = "10" fill = "red" stroke="red" stroke-width="1" fill-opacity = "1"/>
<line x1="5895.000000" y1="190.000000" x2="5595.000000" y2="150.000000" stroke-width="4" stroke="darkgreen" />
<circle cx = "5895.000000" cy = "190.000000" r = "10" fill = "black" stroke="black" stroke-width="1" fill-opacity = "1"/>
<line x1="5595.000000" y1="150.000000" x2="6210.000000" y2="110.000000" stroke-width="4" stroke="darkgreen" />
<circle cx = "5595.000000" cy = "150.000000" r = "10" fill = "black" stroke="black" stroke-width="1" fill-opacity = "1"/>
<line x1="6255.000000" y1="350.000000" x2="6270.000000" y2="310.000000" stroke-width="4" stroke="darkgreen" />
<circle cx = "6255.000000" cy = "350.000000" r = "10" fill = "red" stroke="red" stroke-width="1" fill-opacity = "1"/>
<line x1="6285.000000" y1="350.000000" x2="6270.000000" y2="310.000000" stroke-width="4" stroke="darkgreen" />
<circle cx = "6285.000000" cy = "350.000000" r = "10" fill = "red" stroke="red" stroke-width="1" fill-opacity = "1"/>
<line x1="6270.000000" y1="310.000000" x2="6300.000000" y2="270.000000" stroke-width="4" stroke="darkgreen" />
<circle cx = "6270.000000" cy = "310.000000" r = "10" fill = "black" stroke="black" stroke-width="1" fill-opacity = "1"/>
<line x1="6330.000000" y1="310.000000" x2="6300.000000" y2="270.000000" stroke-width="4" stroke="darkgreen" />
<circle cx = "6330.000000" cy = "310.000000" r = "10" fill = "black" stroke="black" stroke-width="1" fill-opacity = "1"/>
<line x1="6300.000000" y1="270.000000" x2="6375.000000" y2="230.000000" stroke-width="4" stroke="darkgreen" />
<circle cx = "6300.000000" cy = "270.000000" r = "10" fill = "red" stroke="red" stroke-width="1" fill-opacity = "1"/>
<line x1="6420.000000" y1="310.000000" x2="6450.000000" y2="270.000000" stroke-width="4" stroke="darkgreen" />
<circle cx = "6420.000000" cy = "310.000000" r = "10" fill = "red" stroke="red" stroke-width="1" fill-opacity = "1"/>
<line x1="6480.000000" y1="310.000000" x2="6450.000000" y2="270.000000" stroke-width="4" stroke="darkgreen" />
<circle cx = "6480.000000" cy = "310.000000" r = "10" fill = "red" stroke="red" stroke-width="1" fill-opacity = "1"/>
<line x1="6450.000000" y1="270.000000" x2="6375.000000" y2="230.000000" stroke-width="4" stroke="darkgreen" />
<circle cx = "6450.000000" cy = "270.000000" r = "10" fill = "black" stroke="black" stroke-width="1" fill-opacity = "1"/>
<line x1="6375.000000" y1="230.000000" x2="6525.000000" y2="190.000000" stroke-width="4" stroke="darkgreen" />
<circle cx = "6375.000000" cy = "230.000000" r = "10" fill = "black" stroke="black" stroke-width="1" fill-opacity = "1"/>
<line x1="6570.000000" y1="310.000000" x2="6600.000000" y2="270.000000" stroke-width="4" stroke="darkgreen" />
<circle cx = "6570.000000" cy = "310.000000" r = "10" fill = "red" stroke="red" stroke-width="1" fill-opacity = "1"/>
<line x1="6600.000000" y1="270.000000" x2="6675.000000" y2="230.000000" stroke-width="4" stroke="darkgreen" />
<circle cx = "6600.000000" cy = "270.000000" r = "10" fill = "black" stroke="black" stroke-width="1" fill-opacity = "1"/>
<line x1="6780.000000" y1="310.000000" x2="6750.000000" y2="270.000000" stroke-width="4" stroke="darkgreen" />
<circle cx = "6780.000000" cy = "310.000000" r = "10" fill = "red" stroke="red" stroke-width="1" fill-opacity = "1"/>
<line x1="6750.000000" y1="270.000000" x2="6675.000000" y2="230.000000" stroke-width="4" stroke="darkgreen" />
<circle cx = "6750.000000" cy = "270.000000" r = "10" fill = "black" stroke="black" stroke-width="1" fill-opacity = "1"/>
<line x1="6675.000000" y1="230.000000" x2="6525.000000" y2="190.000000" stroke-width="4" stroke="darkgreen" />
<circle cx = "6675.000000" cy = "230.000000" r = "10" fill = "black" stroke="black" stroke-width="1" fill-opacity = "1"/>
<line x1="6525.000000" y1="190.000000" x2="6825.000000" y2="150.000000" stroke-width="4" stroke="darkgreen" />
<circle cx = "6525.000000" cy = "190.000000" r = "10" fill = "red" stroke="red" stroke-width="1" fill-opacity = "1"/>
<line x1="6975.000000" y1="230.000000" x2="7125.000000" y2="190.000000" stroke-width="4" stroke="darkgreen" />
<circle cx = "6975.000000" cy = "230.000000" r = "10" fill = "black" stroke="black" stroke-width="1" fill-opacity = "1"/>
<line x1="7170.000000" y1="310.000000" x2="7200.000000" y2="270.000000" stroke-width="4" stroke="darkgreen" />
<circle cx = "7170.000000" cy = "310.000000" r = "10" fill = "red" stroke="red" stroke-width="1" fill-opacity = "1"/>
<line x1="7230.000000" y1="310.000000" x2="7200.000000" y2="270.000000" stroke-width="4" stroke="darkgreen" />
<circle cx = "7230.000000" cy = "310.000000" r = "10" fill = "red" stroke="red" stroke-width="1" fill-opacity = "1"/>
<line x1="7200.000000" y1="270.000000" x2="7275.000000" y2="230.000000" stroke-width="4" stroke="darkgreen" />
<circle cx = "7200.000000" cy = "270.000000" r = "10" fill = "black" stroke="black" stroke-width="1" fill-opacity = "1"/>
<line x1="7350.000000" y1="270.000000" x2="7275.000000" y2="230.000000" stroke-width="4" stroke="darkgreen" />
<circle cx = "7350.000000" cy = "270.000000" r = "10" fill = "black" stroke="black" stroke-width="1" fill-opacity = "1"/>
<line x1="7275.000000" y1="230.000000" x2="7125.000000" y2="190.000000" stroke-width="4" stroke="darkgreen" />
<circle cx = "7275.000000" cy = "230.000000" r = "10" fill = "red" stroke="red" stroke-width="1" fill-opacity = "1"/>
<line x1="7125.000000" y1="190.000000" x2="6825.000000" y2="150.000000" stroke-width="4" stroke="darkgreen" />
<circle cx = "7125.000000" cy = "190.000000" r = "10" fill = "black" stroke="black" stroke-width="1" fill-opacity = "1"/>
<line x1="6825.000000" y1="150.000000" x2="6210.000000" y2="110.000000" stroke-width="4" stroke="darkgreen" />
<circle cx = "6825.000000" cy = "150.000000" r = "10" fill = "black" stroke="black" stroke-width="1" fill-opacity = "1"/>
<line x1="6210.000000" y1="110.000000" x2="7440.000000" y2="70.000000" stroke-width="4" stroke="darkgreen" />
<circle cx = "6210.000000" cy = "110.000000" r = "10" fill = "red" stroke="red" stroke-width="1" fill-opacity = "1"/>
<line x1="7680.000000" y1="270.000000" x2="7605.000000" y2="230.000000" stroke-width="4" stroke="darkgreen" />
<circle cx = "7680.000000" cy = "270.000000" r = "10" fill = "red" stroke="red" stroke-width="1" fill-opacity = "1"/>
<line x1="7605.000000" y1="230.000000" x2="7755.000000" y2="190.000000" stroke-width="4" stroke="darkgreen" />
<circle cx = "7605.000000" cy = "230.000000" r = "10" fill = "black" stroke="black" stroke-width="1" fill-opacity = "1"/>
<line x1="7860.000000" y1="310.000000" x2="7830.000000" y2="270.000000" stroke-width="4" stroke="darkgreen" />
<circle cx = "7860.000000" cy = "310.000000" r = "10" fill = "red" stroke="red" stroke-width="1" fill-opacity = "1"/>
<line x1="7830.000000" y1="270.000000" x2="7905.000000" y2="230.000000" stroke-width="4" stroke="darkgreen" />
<circle cx = "7830.000000" cy = "270.000000" r = "10" fill = "black" stroke="black" stroke-width="1" fill-opacity = "1"/>
<line x1="7950.000000" y1="310.000000" x2="7980.000000" y2="270.000000" stroke-width="4" stroke="darkgreen" />
<circle cx = "7950.000000" cy = "310.000000" r = "10" fill = "red" stroke="red" stroke-width="1" fill-opacity = "1"/>
<line x1="8010.000000" y1="310.000000" x2="7980.000000" y2="270.000000" stroke-width="4" stroke="darkgreen" />
<circle cx = "8010.000000" cy = "310.000000" r = "10" fill = "red" stroke="red" stroke-width="1" fill-opacity = "1"/>
<line x1="7980.000000" y1="270.000000" x2="7905.000000" y2="230.000000" stroke-width="4" stroke="darkgreen" />
<circle cx = "7980.000000" cy = "270.000000" r = "10" fill = "black" stroke="black" stroke-width="1" fill-opacity = "1"/>
<line x1="7905.000000" y1="230.000000" x2="7755.000000" y2="190.000000" stroke-width="4" stroke="darkgreen" />
<circle cx = "7905.000000" cy = "230.000000" r = "10" fill = "red" stroke="red" stroke-width="1" fill-opacity = "1"/>
<line x1="7755.000000" y1="190.000000" x2="8055.000000" y2="150.000000" stroke-width="4" stroke="darkgreen" />
<circle cx = "7755.000000" cy = "190.000000" r = "10" fill = "black" stroke="black" stroke-width="1" fill-opacity = "1"/>
<line x1="8115.000000" y1="350.000000" x2="8100.000000" y2="310.000000" stroke-width="4" stroke="darkgreen" />
<circle cx = "8115.000000" cy = "350.000000" r = "10" fill = "red" stroke="red" stroke-width="1" fill-opacity = "1"/>
<line x1="8100.000000" y1="310.000000" x2="8130.000000" y2="270.000000" stroke-width="4" stroke="darkgreen" />
<circle cx = "8100.000000" cy = "310.000000" r = "10" fill = "black" stroke="black" stroke-width="1" fill-opacity = "1"/>
<line x1="8160.000000" y1="310.000000" x2="8130.000000" y2="270.000000" stroke-width="4" stroke="darkgreen" />
<circle cx = "8160.000000" cy = "310.000000" r = "10" fill = "black" stroke="black" stroke-width="1" fill-opacity = "1"/>
<line x1="8130.000000" y1="270.000000" x2="8205.000000" y2="230.000000" stroke-width="4" stroke="darkgreen" />
<circle cx = "8130.000000" cy = "270.000000" r = "10" fill = "red" stroke="red" stroke-width="1" fill-opacity = "1"/>
<line x1="8280.000000" y1="270.000000" x2="8205.000000" y2="230.000000" stroke-width="4" stroke="darkgreen" />
<circle cx = "8280.000000" cy = "270.000000" r = "10" fill = "black" stroke="black" stroke-width="1" fill-opacity = "1"/>
<line x1="8205.000000" y1="230.000000" x2="8355.000000" y2="190.000000" stroke-width="4" stroke="darkgreen" />
<circle cx = "8205.000000" cy = "230.000000" r = "10" fill = "black" stroke="black" stroke-width="1" fill-opacity = "1"/>
<line x1="8460.000000" y1="310.000000" x2="8430.000000" y2="270.000000" stroke-width="4" stroke="darkgreen" />
<circle cx = "8460.000000" cy = "310.000000" r = "10" fill = "red" stroke="red" stroke-width="1" fill-opacity = "1"/>
<line x1="8430.000000" y1="270.000000" x2="8505.000000" y2="230.000000" stroke-width="4" stroke="darkgreen" />
<circle cx = "8430.000000" cy = "270.000000" r = "10" fill = "black" stroke="black" stroke-width="1" fill-opacity = "1"/>
<line x1="8580.000000" y1="270.000000" x2="8505.000000" y2="230.000000" stroke-width="4" stroke="darkgreen" />
<circle cx = "8580.000000" cy = "270.000000" r = "10" fill = "black" stroke="black" stroke-width="1" fill-opacity = "1"/>
<line x1="8505.000000" y1="230.000000" x2="8355.000000" y2="190.000000" stroke-width="4" stroke="darkgreen" />
<circle cx = "8505.000000" cy = "230.000000" r = "10" fill = "black" stroke="black" stroke-width="1" fill-opacity = "1"/>
<line x1="8355.000000" y1="190.000000" x2="8055.000000" y2="150.000000" stroke-width="4" stroke="darkgreen" />
<circle cx = "8355.000000" cy = "190.000000" r = "10" fill = "red" stroke="red" stroke-width="1" fill-opacity = "1"/>
<line x1="8055.000000" y1="150.000000" x2="8670.000000" y2="110.000000" stroke-width="4" stroke="darkgreen" />
<circle cx = "8055.000000" cy = "150.000000" r = "10" fill = "black" stroke="black" stroke-width="1" fill-opacity = "1"/>
<line x1="8730.000000" y1="310.000000" x2="8760.000000" y2="270.000000" stroke-width="4" stroke="darkgreen" />
<circle cx = "8730.000000" cy = "310.000000" r = "10" fill = "red" stroke="red" stroke-width="1" fill-opacity = "1"/>
<line x1="8790.000000" y1="310.000000" x2="8760.000000" y2="270.000000" stroke-width="4" stroke="darkgreen" />
<circle cx = "8790.000000" cy = "310.000000" r = "10" fill = "red" stroke="red" stroke-width="1" fill-opacity = "1"/>
<line x1="8760.000000" y1="270.000000" x2="8835.000000" y2="230.000000" stroke-width="4" stroke="darkgreen" />
<circle cx = "8760.000000" cy = "270.000000" r = "10" fill = "black" stroke="black" stroke-width="1" fill-opacity = "1"/>
<line x1="8910.000000" y1="270.000000" x2="8835.000000" y2="230.000000" stroke-width="4" stroke="darkgreen" />
<circle cx = "8910.000000" cy = "270.000000" r = "10" fill = "black" stroke="black" stroke-width="1" fill-opacity = "1"/>
<line x1="8835.000000" y1="230.000000" x2="8985.000000" y2="190.000000" stroke-width="4" stroke="darkgreen" />
<circle cx = "8835.000000" cy = "230.000000" r = "10" fill = "red" stroke="red" stroke-width="1" fill-opacity = "1"/>
<line x1="9060.000000" y1="270.000000" x2="9135.000000" y2="230.000000" stroke-width="4" stroke="darkgreen" />
<circle cx = "9060.000000" cy = "270.000000" r = "10" fill = "black" stroke="black" stroke-width="1" fill-opacity = "1"/>
<line x1="9180.000000" y1="310.000000" x2="9210.000000" y2="270.000000" stroke-width="4" stroke="darkgreen" />
<circle cx = "9180.000000" cy = "310.000000" r = "10" fill = "red" stroke="red" stroke-width="1" fill-opacity = "1"/>
<line x1="9240.000000" y1="310.000000" x2="9210.000000" y2="270.000000" stroke-width="4" stroke="darkgreen" />
<circle cx = "9240.000000" cy = "310.000000" r = "10" fill = "red" stroke="red" stroke-width="1" fill-opacity = "1"/>
<line x1="9210.000000" y1="270.000000" x2="9135.000000" y2="230.000000" stroke-width="4" stroke="darkgreen" />
<circle cx = "9210.000000" cy = "270.000000" r = "10" fill = "black" stroke="black" stroke-width="1" fill-opacity = "1"/>
<line x1="9135.000000" y1="230.000000" x2="8985.000000" y2="190.000000" stroke-width="4" stroke="darkgreen" />
<circle cx = "9135.000000" cy = "230.000000" r = "10" fill = "red" stroke="red" stroke-width="1" fill-opacity = "1"/>
<line x1="8985.000000" y1="190.000000" x2="9285.000000" y2="150.000000" stroke-width="4" stroke="darkgreen" />
<circle cx = "8985.000000" cy = "190.000000" r = "10" fill = "black" stroke="black" stroke-width="1" fill-opacity = "1"/>
<line x1="9510.000000" y1="270.000000" x2="9435.000000" y2="230.000000" stroke-width="4" stroke="darkgreen" />
<circle cx = "9510.000000" cy = "270.000000" r = "10" fill = "red" stroke="red" stroke-width="1" fill-opacity = "1"/>
<line x1="9435.000000" y1="230.000000" x2="9585.000000" y2="190.000000" stroke-width="4" stroke="darkgreen" />
<circle cx = "9435.000000" cy = "230.000000" r = "10" fill = "black" stroke="black" stroke-width="1" fill-opacity = "1"/>
<line x1="9630.000000" y1="310.000000" x2="9660.000000" y2="270.000000" stroke-width="4" stroke="darkgreen" />
<circle cx = "9630.000000" cy = "310.000000" r = "10" fill = "red" stroke="red" stroke-width="1" fill-opacity = "1"/>
<line x1="9660.000000" y1="270.000000" x2="9735.000000" y2="230.000000" stroke-width="4" stroke="darkgreen" />
<circle cx = "9660.000000" cy = "270.000000" r = "10" fill = "black" stroke="black" stroke-width="1" fill-opacity = "1"/>
<line x1="9810.000000" y1="270.000000" x2="9735.000000" y2="230.000000" stroke-width="4" stroke="darkgreen" />
<circle cx = "9810.000000" cy = "270.000000" r = "10" fill = "black" stroke="black" stroke-width="1" fill-opacity = "1"/>
<line x1="9735.000000" y1="230.000000" x2="9585.000000" y2="190.000000" stroke-width="4" stroke="darkgreen" />
<circle cx = "9735.000000" cy = "230.000000" r = "10" fill = "red" stroke="red" stroke-width="1" fill-opacity = "1"/>
<line x1="9585.000000" y1="190.000000" x2="9285.000000" y2="150.000000" stroke-width="4" stroke="darkgreen" />
<circle cx = "9585.000000" cy = "190.000000" r = "10" fill = "black" stroke="black" stroke-width="1" fill-opacity = "1"/>
<line x1="9285.000000" y1="150.000000" x2="8670.000000" y2="110.000000" stroke-width="4" stroke="darkgreen" />
<circle cx = "9285.000000" cy = "150.000000" r = "10" fill = "black" stroke="black" stroke-width="1" fill-opacity = "1"/>
<line x1="8670.000000" y1="110.000000" x2="7440.000000" y2="70.000000" stroke-width="4" stroke="darkgreen" />
<circle cx = "8670.000000" cy = "110.000000" r = "10" fill = "red" stroke="red" stroke-width="1" fill-opacity = "1"/>
<line x1="7440.000000" y1="70.000000" x2="4965.000000" y2="30.000000" stroke-width="4" stroke="darkgreen" />
<circle cx = "7440.000000" cy = "70.000000" r = "10" fill = "black" stroke="black" stroke-width="1" fill-opacity = "1"/>
<line x1="4965.000000" y1="30.000000" x2="4965.000000" y2="30.000000" stroke-width="4" stroke="darkgreen" />
<circle cx = "4965.000000" cy = "30.000000" r = "10" fill = "black" stroke="black" stroke-width="1" fill-opacity = "1"/>
</svg>
