<svg>
<circle cx = "45.000000" cy = "150.000000" r = "5" fill = "black" stroke="black" stroke-width="1" fill-opacity = "1"/>
<line x1="45.000000" y1="150.000000" x2="75.000000" y2="110.000000" stroke-width="4" stroke="darkgreen" />
<circle cx = "90.000000" cy = "190.000000" r = "5" fill = "red" stroke="red" stroke-width="1" fill-opacity = "1"/>
<line x1="90.000000" y1="190.000000" x2="105.000000" y2="150.000000" stroke-width="4" stroke="darkgreen" />
<circle cx = "120.000000" cy = "190.000000" r = "5" fill = "red" stroke="red" stroke-width="1" fill-opacity = "1"/>
<line x1="120.000000" y1="190.000000" x2="105.000000" y2="150.000000" stroke-width="4" stroke="darkgreen" />
<circle cx = "105.000000" cy = "150.000000" r = "5" fill = "black" stroke="black" stroke-width="1" fill-opacity = "1"/>
<line x1="105.000000" y1="150.000000" x2="75.000000" y2="110.000000" stroke-width="4" stroke="darkgreen" />
<circle cx = "75.000000" cy = "110.000000" r = "5" fill = "red" stroke="red" stroke-width="1" fill-opacity = "1"/>
<line x1="75.000000" y1="110.000000" x2="135.000000" y2="70.000000" stroke-width="4" stroke="darkgreen" />
<circle cx = "165.000000" cy = "150.000000" r = "5" fill = "red" stroke="red" stroke-width="1" fill-opacity = "1"/>
<line x1="165.000000" y1="150.000000" x2="195.000000" y2="110.000000" stroke-width="4" stroke="darkgreen" />
<circle cx = "225.000000" cy = "150.000000" r = "5" fill = "red" stroke="red" stroke-width="1" fill-opacity = "1"/>
<line x1="225.000000" y1="150.000000" x2="195.000000" y2="110.000000" stroke-width="4" stroke="darkgreen" />
<circle cx = "195.000000" cy = "110.000000" r = "5" fill = "black" stroke="black" stroke-width="1" fill-opacity = "1"/>
<line x1="195.000000" y1="110.000000" x2="135.000000" y2="70.000000" stroke-width="4" stroke="darkgreen" />
<circle cx = "135.000000" cy = "70.000000" r = "5" fill = "black" stroke="black" stroke-width="1" fill-opacity = "1"/>
<line x1="135.000000" y1="70.000000" x2="255.000000" y2="30.000000" stroke-width="4" stroke="darkgreen" />
<circle cx = "285.000000" cy = "150.000000" r = "5" fill = "red" stroke="red" stroke-width="1" fill-opacity = "1"/>
<line x1="285.000000" y1="150.000000" x2="315.000000" y2="110.000000" stroke-width="4" stroke="darkgreen" />
<circle cx = "345.000000" cy = "150.000000" r = "5" fill = "red" stroke="red" stroke-width="1" fill-opacity = "1"/>
<line x1="345.000000" y1="150.000000" x2="315.000000" y2="110.000000" stroke-width="4" stroke="darkgreen" />
<circle cx = "315.000000" cy = "110.000000" r = "5" fill = "black" stroke="black" stroke-width="1" fill-opacity = "1"/>
<line x1="315.000000" y1="110.000000" x2="375.000000" y2="70.000000" stroke-width="4" stroke="darkgreen" />
<circle cx = "390.000000" cy = "190.000000" r = "5" fill = "red" stroke="red" stroke-width="1" fill-opacity = "1"/>
<line x1="390.000000" y1="190.000000" x2="405.000000" y2="150.000000" stroke-width="4" stroke="darkgreen" />
<circle cx = "405.000000" cy = "150.000000" r = "5" fill = "black" stroke="black" stroke-width="1" fill-opacity = "1"/>
<line x1="405.000000" y1="150.000000" x2="435.000000" y2="110.000000" stroke-width="4" stroke="darkgreen" />
<circle cx = "450.000000" cy = "190.000000" r = "5" fill = "red" stroke="red" stroke-width="1" fill-opacity = "1"/>
<line x1="450.000000" y1="190.000000" x2="465.000000" y2="150.000000" stroke-width="4" stroke="darkgreen" />
<circle cx = "480.000000" cy = "190.000000" r = "5" fill = "red" stroke="red" stroke-width="1" fill-opacity = "1"/>
<line x1="480.000000" y1="190.000000" x2="465.000000" y2="150.000000" stroke-width="4" stroke="darkgreen" />
<circle cx = "465.000000" cy = "150.000000" r = "5" fill = "black" stroke="black" stroke-width="1" fill-opacity = "1"/>
<line x1="465.000000" y1="150.000000" x2="435.000000" y2="110.000000" stroke-width="4" stroke="darkgreen" />
<circle cx = "435.000000" cy = "110.000000" r = "5" fill = "red" stroke="red" stroke-width="1" fill-opacity = "1"/>
<line x1="435.000000" y1="110.000000" x2="375.000000" y2="70.000000" stroke-width="4" stroke="darkgreen" />
<circle cx = "375.000000" cy = "70.000000" r = "5" fill = "black" stroke="black" stroke-width="1" fill-opacity = "1"/>
<line x1="375.000000" y1="70.000000" x2="255.000000" y2="30.000000" stroke-width="4" stroke="darkgreen" />
<circle cx = "255.000000" cy = "30.000000" r = "5" fill = "black" stroke="black" stroke-width="1" fill-opacity = "1"/>
<line x1="255.000000" y1="30.000000" x2="255.000000" y2="30.000000" stroke-width="4" stroke="darkgreen" />
</svg>
