<svg width="1631.000000" height="1258.000000">
                   <rect x="70.500000" y="1187.500000" width="11.500000" height="5.000000" fill="white" stroke="black" stroke-width="4" fill-opacity = "0.000"/>
<circle cx = "133.251378" cy = "349.480994" r = "5.000000" fill = "#006400" stroke="#006400" stroke-width="1" fill-opacity = "1"/>
<circle cx = "176.643930" cy = "241.091637" r = "5.000000" fill = "#006400" stroke="#006400" stroke-width="1" fill-opacity = "1"/>
<line x1="133.251378" y1="349.480994" x2="176.643930" y2="241.091637" stroke-width="4" stroke="#006400" />
<circle cx = "111.155806" cy = "580.876293" r = "5.000000" fill = "#006400" stroke="#006400" stroke-width="1" fill-opacity = "1"/>
<circle cx = "219.040075" cy = "474.425406" r = "5.000000" fill = "#006400" stroke="#006400" stroke-width="1" fill-opacity = "1"/>
<line x1="111.155806" y1="580.876293" x2="219.040075" y2="474.425406" stroke-width="4" stroke="#006400" />
<circle cx = "176.643930" cy = "241.091637" r = "5.000000" fill = "#006400" stroke="#006400" stroke-width="1" fill-opacity = "1"/>
<circle cx = "324.953647" cy = "209.866093" r = "5.000000" fill = "#006400" stroke="#006400" stroke-width="1" fill-opacity = "1"/>
<line x1="176.643930" y1="241.091637" x2="324.953647" y2="209.866093" stroke-width="4" stroke="#006400" />
<circle cx = "239.765143" cy = "902.126887" r = "5.000000" fill = "#006400" stroke="#006400" stroke-width="1" fill-opacity = "1"/>
<circle cx = "272.971472" cy = "754.248063" r = "5.000000" fill = "#006400" stroke="#006400" stroke-width="1" fill-opacity = "1"/>
<line x1="239.765143" y1="902.126887" x2="272.971472" y2="754.248063" stroke-width="4" stroke="#006400" />
<circle cx = "219.040075" cy = "474.425406" r = "5.000000" fill = "#006400" stroke="#006400" stroke-width="1" fill-opacity = "1"/>
<circle cx = "133.251378" cy = "349.480994" r = "5.000000" fill = "#006400" stroke="#006400" stroke-width="1" fill-opacity = "1"/>
<line x1="219.040075" y1="474.425406" x2="133.251378" y2="349.480994" stroke-width="4" stroke="#006400" />
<circle cx = "133.251378" cy = "695.519006" r = "5.000000" fill = "#006400" stroke="#006400" stroke-width="1" fill-opacity = "1"/>
<circle cx = "111.155806" cy = "580.876293" r = "5.000000" fill = "#006400" stroke="#006400" stroke-width="1" fill-opacity = "1"/>
<line x1="133.251378" y1="695.519006" x2="111.155806" y2="580.876293" stroke-width="4" stroke="#006400" />
<circle cx = "320.333652" cy = "58.375293" r = "5.000000" fill = "#006400" stroke="#006400" stroke-width="1" fill-opacity = "1"/>
<circle cx = "415.437500" cy = "-9.347851" r = "5.000000" fill = "#006400" stroke="#006400" stroke-width="1" fill-opacity = "1"/>
<line x1="320.333652" y1="58.375293" x2="415.437500" y2="-9.347851" stroke-width="4" stroke="#006400" />
<circle cx = "415.437500" cy = "-9.347851" r = "5.000000" fill = "#006400" stroke="#006400" stroke-width="1" fill-opacity = "1"/>
<circle cx = "557.085378" cy = "44.565836" r = "5.000000" fill = "#006400" stroke="#006400" stroke-width="1" fill-opacity = "1"/>
<line x1="415.437500" y1="-9.347851" x2="557.085378" y2="44.565836" stroke-width="4" stroke="#006400" />
<circle cx = "324.953647" cy = "209.866093" r = "5.000000" fill = "#006400" stroke="#006400" stroke-width="1" fill-opacity = "1"/>
<circle cx = "320.333652" cy = "58.375293" r = "5.000000" fill = "#006400" stroke="#006400" stroke-width="1" fill-opacity = "1"/>
<line x1="324.953647" y1="209.866093" x2="320.333652" y2="58.375293" stroke-width="4" stroke="#006400" />
<circle cx = "320.333652" cy = "986.624707" r = "5.000000" fill = "#006400" stroke="#006400" stroke-width="1" fill-opacity = "1"/>
<circle cx = "239.765143" cy = "902.126887" r = "5.000000" fill = "#006400" stroke="#006400" stroke-width="1" fill-opacity = "1"/>
<line x1="320.333652" y1="986.624707" x2="239.765143" y2="902.126887" stroke-width="4" stroke="#006400" />
<circle cx = "272.971472" cy = "754.248063" r = "5.000000" fill = "#006400" stroke="#006400" stroke-width="1" fill-opacity = "1"/>
<circle cx = "133.251378" cy = "695.519006" r = "5.000000" fill = "#006400" stroke="#006400" stroke-width="1" fill-opacity = "1"/>
<line x1="272.971472" y1="754.248063" x2="133.251378" y2="695.519006" stroke-width="4" stroke="#006400" />
<circle cx = "521.639387" cy = "1102.848628" r = "5.000000" fill = "#006400" stroke="#006400" stroke-width="1" fill-opacity = "1"/>
<circle cx = "469.625000" cy = "960.492348" r = "5.000000" fill = "#006400" stroke="#006400" stroke-width="1" fill-opacity = "1"/>
<line x1="521.639387" y1="1102.848628" x2="469.625000" y2="960.492348" stroke-width="4" stroke="#006400" />
<circle cx = "635.100900" cy = "-85.374093" r = "5.000000" fill = "#006400" stroke="#006400" stroke-width="1" fill-opacity = "1"/>
<circle cx = "751.721244" cy = "-90.929405" r = "5.000000" fill = "#006400" stroke="#006400" stroke-width="1" fill-opacity = "1"/>
<line x1="635.100900" y1="-85.374093" x2="751.721244" y2="-90.929405" stroke-width="4" stroke="#006400" />
<circle cx = "557.085378" cy = "44.565836" r = "5.000000" fill = "#006400" stroke="#006400" stroke-width="1" fill-opacity = "1"/>
<circle cx = "635.100900" cy = "-85.374093" r = "5.000000" fill = "#006400" stroke="#006400" stroke-width="1" fill-opacity = "1"/>
<line x1="557.085378" y1="44.565836" x2="635.100900" y2="-85.374093" stroke-width="4" stroke="#006400" />
<circle cx = "746.564554" cy = "1027.677157" r = "5.000000" fill = "#006400" stroke="#006400" stroke-width="1" fill-opacity = "1"/>
<circle cx = "635.100900" cy = "1130.374093" r = "5.000000" fill = "#006400" stroke="#006400" stroke-width="1" fill-opacity = "1"/>
<line x1="746.564554" y1="1027.677157" x2="635.100900" y2="1130.374093" stroke-width="4" stroke="#006400" />
<circle cx = "841.735082" cy = "31.006299" r = "5.000000" fill = "#006400" stroke="#006400" stroke-width="1" fill-opacity = "1"/>
<circle cx = "977.616745" cy = "-36.127749" r = "5.000000" fill = "#006400" stroke="#006400" stroke-width="1" fill-opacity = "1"/>
<line x1="841.735082" y1="31.006299" x2="977.616745" y2="-36.127749" stroke-width="4" stroke="#006400" />
<circle cx = "751.721244" cy = "-90.929405" r = "5.000000" fill = "#006400" stroke="#006400" stroke-width="1" fill-opacity = "1"/>
<circle cx = "841.735082" cy = "31.006299" r = "5.000000" fill = "#006400" stroke="#006400" stroke-width="1" fill-opacity = "1"/>
<line x1="751.721244" y1="-90.929405" x2="841.735082" y2="31.006299" stroke-width="4" stroke="#006400" />
<circle cx = "635.100900" cy = "1130.374093" r = "5.000000" fill = "#006400" stroke="#006400" stroke-width="1" fill-opacity = "1"/>
<circle cx = "521.639387" cy = "1102.848628" r = "5.000000" fill = "#006400" stroke="#006400" stroke-width="1" fill-opacity = "1"/>
<line x1="635.100900" y1="1130.374093" x2="521.639387" y2="1102.848628" stroke-width="4" stroke="#006400" />
<circle cx = "469.625000" cy = "960.492348" r = "5.000000" fill = "#006400" stroke="#006400" stroke-width="1" fill-opacity = "1"/>
<circle cx = "320.333652" cy = "986.624707" r = "5.000000" fill = "#006400" stroke="#006400" stroke-width="1" fill-opacity = "1"/>
<line x1="469.625000" y1="960.492348" x2="320.333652" y2="986.624707" stroke-width="4" stroke="#006400" />
<circle cx = "977.616745" cy = "-36.127749" r = "5.000000" fill = "#006400" stroke="#006400" stroke-width="1" fill-opacity = "1"/>
<circle cx = "1078.727450" cy = "22.248543" r = "5.000000" fill = "#006400" stroke="#006400" stroke-width="1" fill-opacity = "1"/>
<line x1="977.616745" y1="-36.127749" x2="1078.727450" y2="22.248543" stroke-width="4" stroke="#006400" />
<circle cx = "977.616745" cy = "1081.127749" r = "5.000000" fill = "#006400" stroke="#006400" stroke-width="1" fill-opacity = "1"/>
<circle cx = "867.285456" cy = "1119.313779" r = "5.000000" fill = "#006400" stroke="#006400" stroke-width="1" fill-opacity = "1"/>
<line x1="977.616745" y1="1081.127749" x2="867.285456" y2="1119.313779" stroke-width="4" stroke="#006400" />
<circle cx = "1078.727450" cy = "22.248543" r = "5.000000" fill = "#006400" stroke="#006400" stroke-width="1" fill-opacity = "1"/>
<circle cx = "1088.528490" cy = "173.492540" r = "5.000000" fill = "#006400" stroke="#006400" stroke-width="1" fill-opacity = "1"/>
<line x1="1078.727450" y1="22.248543" x2="1088.528490" y2="173.492540" stroke-width="4" stroke="#006400" />
<circle cx = "1166.963166" cy = "946.294773" r = "5.000000" fill = "#006400" stroke="#006400" stroke-width="1" fill-opacity = "1"/>
<circle cx = "1015.863782" cy = "934.471788" r = "5.000000" fill = "#006400" stroke="#006400" stroke-width="1" fill-opacity = "1"/>
<line x1="1166.963166" y1="946.294773" x2="1015.863782" y2="934.471788" stroke-width="4" stroke="#006400" />
<circle cx = "1088.528490" cy = "173.492540" r = "5.000000" fill = "#006400" stroke="#006400" stroke-width="1" fill-opacity = "1"/>
<circle cx = "1239.134826" cy = "190.478958" r = "5.000000" fill = "#006400" stroke="#006400" stroke-width="1" fill-opacity = "1"/>
<line x1="1088.528490" y1="173.492540" x2="1239.134826" y2="190.478958" stroke-width="4" stroke="#006400" />
<circle cx = "1015.863782" cy = "934.471788" r = "5.000000" fill = "#006400" stroke="#006400" stroke-width="1" fill-opacity = "1"/>
<circle cx = "977.616745" cy = "1081.127749" r = "5.000000" fill = "#006400" stroke="#006400" stroke-width="1" fill-opacity = "1"/>
<line x1="1015.863782" y1="934.471788" x2="977.616745" y2="1081.127749" stroke-width="4" stroke="#006400" />
<circle cx = "1219.110439" cy = "426.786183" r = "5.000000" fill = "#006400" stroke="#006400" stroke-width="1" fill-opacity = "1"/>
<circle cx = "1336.625000" cy = "522.500000" r = "5.000000" fill = "#006400" stroke="#006400" stroke-width="1" fill-opacity = "1"/>
<line x1="1219.110439" y1="426.786183" x2="1336.625000" y2="522.500000" stroke-width="4" stroke="#006400" />
<circle cx = "1239.134826" cy = "190.478958" r = "5.000000" fill = "#006400" stroke="#006400" stroke-width="1" fill-opacity = "1"/>
<circle cx = "1292.633957" cy = "294.252794" r = "5.000000" fill = "#006400" stroke="#006400" stroke-width="1" fill-opacity = "1"/>
<line x1="1239.134826" y1="190.478958" x2="1292.633957" y2="294.252794" stroke-width="4" stroke="#006400" />
<circle cx = "1292.633957" cy = "294.252794" r = "5.000000" fill = "#006400" stroke="#006400" stroke-width="1" fill-opacity = "1"/>
<circle cx = "1219.110439" cy = "426.786183" r = "5.000000" fill = "#006400" stroke="#006400" stroke-width="1" fill-opacity = "1"/>
<line x1="1292.633957" y1="294.252794" x2="1219.110439" y2="426.786183" stroke-width="4" stroke="#006400" />
<circle cx = "1239.134826" cy = "854.521042" r = "5.000000" fill = "#006400" stroke="#006400" stroke-width="1" fill-opacity = "1"/>
<circle cx = "1166.963166" cy = "946.294773" r = "5.000000" fill = "#006400" stroke="#006400" stroke-width="1" fill-opacity = "1"/>
<line x1="1239.134826" y1="854.521042" x2="1166.963166" y2="946.294773" stroke-width="4" stroke="#006400" />
<circle cx = "1336.625000" cy = "522.500000" r = "5.000000" fill = "#006400" stroke="#006400" stroke-width="1" fill-opacity = "1"/>
<circle cx = "1325.526961" cy = "638.723920" r = "5.000000" fill = "#006400" stroke="#006400" stroke-width="1" fill-opacity = "1"/>
<line x1="1336.625000" y1="522.500000" x2="1325.526961" y2="638.723920" stroke-width="4" stroke="#006400" />
<circle cx = "1325.526961" cy = "638.723920" r = "5.000000" fill = "#006400" stroke="#006400" stroke-width="1" fill-opacity = "1"/>
<circle cx = "1192.022082" cy = "710.468287" r = "5.000000" fill = "#006400" stroke="#006400" stroke-width="1" fill-opacity = "1"/>
<line x1="1325.526961" y1="638.723920" x2="1192.022082" y2="710.468287" stroke-width="4" stroke="#006400" />
<circle cx = "1192.022082" cy = "710.468287" r = "5.000000" fill = "#006400" stroke="#006400" stroke-width="1" fill-opacity = "1"/>
<circle cx = "1239.134826" cy = "854.521042" r = "5.000000" fill = "#006400" stroke="#006400" stroke-width="1" fill-opacity = "1"/>
<line x1="1192.022082" y1="710.468287" x2="1239.134826" y2="854.521042" stroke-width="4" stroke="#006400" />
<circle cx = "867.285456" cy = "1119.313779" r = "5.000000" fill = "#006400" stroke="#006400" stroke-width="1" fill-opacity = "1"/>
<circle cx = "746.564554" cy = "1027.677157" r = "5.000000" fill = "#006400" stroke="#006400" stroke-width="1" fill-opacity = "1"/>
<line x1="867.285456" y1="1119.313779" x2="746.564554" y2="1027.677157" stroke-width="4" stroke="#006400" />
<circle cx = "95.000000" cy = "175.000000" r = "8.000000" fill = "white" stroke="yellow" stroke-width="1.000000" fill-opacity = "0.0"/>
<line x1="965.000000" y1="950.000000" x2="95.000000" y2="175.000000" stroke-width="1" stroke="black" />
<text x="530.000000" y="562.500000" font-family= "Verdana"  font-size="5">1165.128748</text>
<circle cx = "215.000000" cy = "935.000000" r = "8.000000" fill = "white" stroke="yellow" stroke-width="1.000000" fill-opacity = "0.0"/>
<line x1="205.000000" y1="950.000000" x2="215.000000" y2="935.000000" stroke-width="1" stroke="black" />
<text x="210.000000" y="942.500000" font-family= "Verdana"  font-size="5">18.027756</text>
<circle cx = "1430.000000" cy = "1030.000000" r = "8.000000" fill = "white" stroke="yellow" stroke-width="1.000000" fill-opacity = "0.0"/>
<line x1="584.000000" y1="285.000000" x2="1430.000000" y2="1030.000000" stroke-width="1" stroke="black" />
<text x="1007.000000" y="657.500000" font-family= "Verdana"  font-size="5">1127.271485</text>
<circle cx = "1430.000000" cy = "990.000000" r = "8.000000" fill = "white" stroke="yellow" stroke-width="1.000000" fill-opacity = "0.0"/>
<line x1="584.000000" y1="285.000000" x2="1430.000000" y2="990.000000" stroke-width="1" stroke="black" />
<text x="1007.000000" y="637.500000" font-family= "Verdana"  font-size="5">1101.245204</text>
<circle cx = "1370.000000" cy = "1030.000000" r = "8.000000" fill = "white" stroke="yellow" stroke-width="1.000000" fill-opacity = "0.0"/>
<line x1="584.000000" y1="285.000000" x2="1370.000000" y2="1030.000000" stroke-width="1" stroke="black" />
<text x="977.000000" y="657.500000" font-family= "Verdana"  font-size="5">1082.968605</text>
<circle cx = "1430.000000" cy = "935.000000" r = "8.000000" fill = "white" stroke="yellow" stroke-width="1.000000" fill-opacity = "0.0"/>
<line x1="584.000000" y1="285.000000" x2="1430.000000" y2="935.000000" stroke-width="1" stroke="black" />
<text x="1007.000000" y="610.000000" font-family= "Verdana"  font-size="5">1066.872064</text>
<circle cx = "1430.000000" cy = "895.000000" r = "8.000000" fill = "white" stroke="yellow" stroke-width="1.000000" fill-opacity = "0.0"/>
<line x1="584.000000" y1="285.000000" x2="1430.000000" y2="895.000000" stroke-width="1" stroke="black" />
<text x="1007.000000" y="590.000000" font-family= "Verdana"  font-size="5">1042.984180</text>
<circle cx = "1310.000000" cy = "1030.000000" r = "8.000000" fill = "white" stroke="yellow" stroke-width="1.000000" fill-opacity = "0.0"/>
<line x1="584.000000" y1="285.000000" x2="1310.000000" y2="1030.000000" stroke-width="1" stroke="black" />
<text x="947.000000" y="657.500000" font-family= "Verdana"  font-size="5">1040.240837</text>
<circle cx = "1295.000000" cy = "1030.000000" r = "8.000000" fill = "white" stroke="yellow" stroke-width="1.000000" fill-opacity = "0.0"/>
<line x1="584.000000" y1="285.000000" x2="1295.000000" y2="1030.000000" stroke-width="1" stroke="black" />
<text x="939.500000" y="657.500000" font-family= "Verdana"  font-size="5">1029.828141</text>
<circle cx = "1370.000000" cy = "935.000000" r = "8.000000" fill = "white" stroke="yellow" stroke-width="1.000000" fill-opacity = "0.0"/>
<line x1="584.000000" y1="285.000000" x2="1370.000000" y2="935.000000" stroke-width="1" stroke="black" />
<text x="977.000000" y="610.000000" font-family= "Verdana"  font-size="5">1019.949018</text>
<circle cx = "1430.000000" cy = "840.000000" r = "8.000000" fill = "white" stroke="yellow" stroke-width="1.000000" fill-opacity = "0.0"/>
<line x1="584.000000" y1="285.000000" x2="1430.000000" y2="840.000000" stroke-width="1" stroke="black" />
<text x="1007.000000" y="562.500000" font-family= "Verdana"  font-size="5">1011.800870</text>
<circle cx = "1295.000000" cy = "990.000000" r = "8.000000" fill = "white" stroke="yellow" stroke-width="1.000000" fill-opacity = "0.0"/>
<line x1="584.000000" y1="285.000000" x2="1295.000000" y2="990.000000" stroke-width="1" stroke="black" />
<text x="939.500000" y="637.500000" font-family= "Verdana"  font-size="5">1001.272191</text>
<circle cx = "1025.000000" cy = "895.000000" r = "8.000000" fill = "white" stroke="yellow" stroke-width="1.000000" fill-opacity = "0.0"/>
<line x1="1040.000000" y1="880.000000" x2="1025.000000" y2="895.000000" stroke-width="1" stroke="black" />
<text x="1032.500000" y="887.500000" font-family= "Verdana"  font-size="5">21.213203</text>
<circle cx = "1040.000000" cy = "840.000000" r = "8.000000" fill = "white" stroke="yellow" stroke-width="1.000000" fill-opacity = "0.0"/>
<line x1="1040.000000" y1="880.000000" x2="1040.000000" y2="840.000000" stroke-width="1" stroke="black" />
<text x="1040.000000" y="860.000000" font-family= "Verdana"  font-size="5">40.000000</text>
<circle cx = "1025.000000" cy = "840.000000" r = "8.000000" fill = "white" stroke="yellow" stroke-width="1.000000" fill-opacity = "0.0"/>
<line x1="1040.000000" y1="880.000000" x2="1025.000000" y2="840.000000" stroke-width="1" stroke="black" />
<text x="1032.500000" y="860.000000" font-family= "Verdana"  font-size="5">42.720019</text>
<circle cx = "1040.000000" cy = "935.000000" r = "8.000000" fill = "white" stroke="yellow" stroke-width="1.000000" fill-opacity = "0.0"/>
<line x1="1040.000000" y1="880.000000" x2="1040.000000" y2="935.000000" stroke-width="1" stroke="black" />
<text x="1040.000000" y="907.500000" font-family= "Verdana"  font-size="5">55.000000</text>
<circle cx = "1025.000000" cy = "935.000000" r = "8.000000" fill = "white" stroke="yellow" stroke-width="1.000000" fill-opacity = "0.0"/>
<line x1="1040.000000" y1="880.000000" x2="1025.000000" y2="935.000000" stroke-width="1" stroke="black" />
<text x="1032.500000" y="907.500000" font-family= "Verdana"  font-size="5">57.008771</text>
<circle cx = "1100.000000" cy = "840.000000" r = "8.000000" fill = "white" stroke="yellow" stroke-width="1.000000" fill-opacity = "0.0"/>
<line x1="1040.000000" y1="880.000000" x2="1100.000000" y2="840.000000" stroke-width="1" stroke="black" />
<text x="1070.000000" y="860.000000" font-family= "Verdana"  font-size="5">72.111026</text>
<circle cx = "1025.000000" cy = "800.000000" r = "8.000000" fill = "white" stroke="yellow" stroke-width="1.000000" fill-opacity = "0.0"/>
<line x1="1040.000000" y1="880.000000" x2="1025.000000" y2="800.000000" stroke-width="1" stroke="black" />
<text x="1032.500000" y="840.000000" font-family= "Verdana"  font-size="5">81.394103</text>
<circle cx = "1100.000000" cy = "935.000000" r = "8.000000" fill = "white" stroke="yellow" stroke-width="1.000000" fill-opacity = "0.0"/>
<line x1="1040.000000" y1="880.000000" x2="1100.000000" y2="935.000000" stroke-width="1" stroke="black" />
<text x="1070.000000" y="907.500000" font-family= "Verdana"  font-size="5">81.394103</text>
<circle cx = "965.000000" cy = "840.000000" r = "8.000000" fill = "white" stroke="yellow" stroke-width="1.000000" fill-opacity = "0.0"/>
<line x1="1040.000000" y1="880.000000" x2="965.000000" y2="840.000000" stroke-width="1" stroke="black" />
<text x="1002.500000" y="860.000000" font-family= "Verdana"  font-size="5">85.000000</text>
<circle cx = "965.000000" cy = "935.000000" r = "8.000000" fill = "white" stroke="yellow" stroke-width="1.000000" fill-opacity = "0.0"/>
<line x1="1040.000000" y1="880.000000" x2="965.000000" y2="935.000000" stroke-width="1" stroke="black" />
<text x="1002.500000" y="907.500000" font-family= "Verdana"  font-size="5">93.005376</text>
</svg>